<svg xmlns="http://www.w3.org/2000/svg" width="431.8mm" height="279.4mm" viewBox="0 0 431.8 279.4"><rect x="0" y="0" width="431.8" height="279.4" fill="#143F73"/><rect x="10.0" y="10.0" width="411.8" height="259.4" fill="none" stroke="#EEF5FF" stroke-width="0.7"/><line x1="61.5" y1="10.0" x2="61.5" y2="13.0" stroke="#EEF5FF" stroke-width="0.35"/><line x1="61.5" y1="269.4" x2="61.5" y2="266.4" stroke="#EEF5FF" stroke-width="0.35"/><line x1="113.0" y1="10.0" x2="113.0" y2="13.0" stroke="#EEF5FF" stroke-width="0.35"/><line x1="113.0" y1="269.4" x2="113.0" y2="266.4" stroke="#EEF5FF" stroke-width="0.35"/><line x1="164.4" y1="10.0" x2="164.4" y2="13.0" stroke="#EEF5FF" stroke-width="0.35"/><line x1="164.4" y1="269.4" x2="164.4" y2="266.4" stroke="#EEF5FF" stroke-width="0.35"/><line x1="215.9" y1="10.0" x2="215.9" y2="13.0" stroke="#EEF5FF" stroke-width="0.35"/><line x1="215.9" y1="269.4" x2="215.9" y2="266.4" stroke="#EEF5FF" stroke-width="0.35"/><line x1="267.4" y1="10.0" x2="267.4" y2="13.0" stroke="#EEF5FF" stroke-width="0.35"/><line x1="267.4" y1="269.4" x2="267.4" y2="266.4" stroke="#EEF5FF" stroke-width="0.35"/><line x1="318.9" y1="10.0" x2="318.9" y2="13.0" stroke="#EEF5FF" stroke-width="0.35"/><line x1="318.9" y1="269.4" x2="318.9" y2="266.4" stroke="#EEF5FF" stroke-width="0.35"/><line x1="370.3" y1="10.0" x2="370.3" y2="13.0" stroke="#EEF5FF" stroke-width="0.35"/><line x1="370.3" y1="269.4" x2="370.3" y2="266.4" stroke="#EEF5FF" stroke-width="0.35"/><line x1="20" y1="10.0" x2="20" y2="269.4" stroke="#2E5C94" stroke-width="0.12"/><line x1="30" y1="10.0" x2="30" y2="269.4" stroke="#2E5C94" stroke-width="0.12"/><line x1="40" y1="10.0" x2="40" y2="269.4" stroke="#2E5C94" stroke-width="0.12"/><line x1="50" y1="10.0" x2="50" y2="269.4" stroke="#2E5C94" stroke-width="0.12"/><line x1="60" y1="10.0" x2="60" y2="269.4" stroke="#2E5C94" stroke-width="0.12"/><line x1="70" y1="10.0" x2="70" y2="269.4" stroke="#2E5C94" stroke-width="0.12"/><line x1="80" y1="10.0" x2="80" y2="269.4" stroke="#2E5C94" stroke-width="0.12"/><line x1="90" y1="10.0" x2="90" y2="269.4" stroke="#2E5C94" stroke-width="0.12"/><line x1="100" y1="10.0" x2="100" y2="269.4" stroke="#2E5C94" stroke-width="0.12"/><line x1="110" y1="10.0" x2="110" y2="269.4" stroke="#2E5C94" stroke-width="0.12"/><line x1="120" y1="10.0" x2="120" y2="269.4" stroke="#2E5C94" stroke-width="0.12"/><line x1="130" y1="10.0" x2="130" y2="269.4" stroke="#2E5C94" stroke-width="0.12"/><line x1="140" y1="10.0" x2="140" y2="269.4" stroke="#2E5C94" stroke-width="0.12"/><line x1="150" y1="10.0" x2="150" y2="269.4" stroke="#2E5C94" stroke-width="0.12"/><line x1="160" y1="10.0" x2="160" y2="269.4" stroke="#2E5C94" stroke-width="0.12"/><line x1="170" y1="10.0" x2="170" y2="269.4" stroke="#2E5C94" stroke-width="0.12"/><line x1="180" y1="10.0" x2="180" y2="269.4" stroke="#2E5C94" stroke-width="0.12"/><line x1="190" y1="10.0" x2="190" y2="269.4" stroke="#2E5C94" stroke-width="0.12"/><line x1="200" y1="10.0" x2="200" y2="269.4" stroke="#2E5C94" stroke-width="0.12"/><line x1="210" y1="10.0" x2="210" y2="269.4" stroke="#2E5C94" stroke-width="0.12"/><line x1="220" y1="10.0" x2="220" y2="269.4" stroke="#2E5C94" stroke-width="0.12"/><line x1="230" y1="10.0" x2="230" y2="269.4" stroke="#2E5C94" stroke-width="0.12"/><line x1="240" y1="10.0" x2="240" y2="269.4" stroke="#2E5C94" stroke-width="0.12"/><line x1="250" y1="10.0" x2="250" y2="269.4" stroke="#2E5C94" stroke-width="0.12"/><line x1="260" y1="10.0" x2="260" y2="269.4" stroke="#2E5C94" stroke-width="0.12"/><line x1="270" y1="10.0" x2="270" y2="269.4" stroke="#2E5C94" stroke-width="0.12"/><line x1="280" y1="10.0" x2="280" y2="269.4" stroke="#2E5C94" stroke-width="0.12"/><line x1="290" y1="10.0" x2="290" y2="269.4" stroke="#2E5C94" stroke-width="0.12"/><line x1="300" y1="10.0" x2="300" y2="269.4" stroke="#2E5C94" stroke-width="0.12"/><line x1="310" y1="10.0" x2="310" y2="269.4" stroke="#2E5C94" stroke-width="0.12"/><line x1="320" y1="10.0" x2="320" y2="269.4" stroke="#2E5C94" stroke-width="0.12"/><line x1="330" y1="10.0" x2="330" y2="269.4" stroke="#2E5C94" stroke-width="0.12"/><line x1="340" y1="10.0" x2="340" y2="269.4" stroke="#2E5C94" stroke-width="0.12"/><line x1="350" y1="10.0" x2="350" y2="269.4" stroke="#2E5C94" stroke-width="0.12"/><line x1="360" y1="10.0" x2="360" y2="269.4" stroke="#2E5C94" stroke-width="0.12"/><line x1="370" y1="10.0" x2="370" y2="269.4" stroke="#2E5C94" stroke-width="0.12"/><line x1="380" y1="10.0" x2="380" y2="269.4" stroke="#2E5C94" stroke-width="0.12"/><line x1="390" y1="10.0" x2="390" y2="269.4" stroke="#2E5C94" stroke-width="0.12"/><line x1="400" y1="10.0" x2="400" y2="269.4" stroke="#2E5C94" stroke-width="0.12"/><line x1="410" y1="10.0" x2="410" y2="269.4" stroke="#2E5C94" stroke-width="0.12"/><line x1="420" y1="10.0" x2="420" y2="269.4" stroke="#2E5C94" stroke-width="0.12"/><line x1="10.0" y1="20" x2="421.8" y2="20" stroke="#2E5C94" stroke-width="0.12"/><line x1="10.0" y1="30" x2="421.8" y2="30" stroke="#2E5C94" stroke-width="0.12"/><line x1="10.0" y1="40" x2="421.8" y2="40" stroke="#2E5C94" stroke-width="0.12"/><line x1="10.0" y1="50" x2="421.8" y2="50" stroke="#2E5C94" stroke-width="0.12"/><line x1="10.0" y1="60" x2="421.8" y2="60" stroke="#2E5C94" stroke-width="0.12"/><line x1="10.0" y1="70" x2="421.8" y2="70" stroke="#2E5C94" stroke-width="0.12"/><line x1="10.0" y1="80" x2="421.8" y2="80" stroke="#2E5C94" stroke-width="0.12"/><line x1="10.0" y1="90" x2="421.8" y2="90" stroke="#2E5C94" stroke-width="0.12"/><line x1="10.0" y1="100" x2="421.8" y2="100" stroke="#2E5C94" stroke-width="0.12"/><line x1="10.0" y1="110" x2="421.8" y2="110" stroke="#2E5C94" stroke-width="0.12"/><line x1="10.0" y1="120" x2="421.8" y2="120" stroke="#2E5C94" stroke-width="0.12"/><line x1="10.0" y1="130" x2="421.8" y2="130" stroke="#2E5C94" stroke-width="0.12"/><line x1="10.0" y1="140" x2="421.8" y2="140" stroke="#2E5C94" stroke-width="0.12"/><line x1="10.0" y1="150" x2="421.8" y2="150" stroke="#2E5C94" stroke-width="0.12"/><line x1="10.0" y1="160" x2="421.8" y2="160" stroke="#2E5C94" stroke-width="0.12"/><line x1="10.0" y1="170" x2="421.8" y2="170" stroke="#2E5C94" stroke-width="0.12"/><line x1="10.0" y1="180" x2="421.8" y2="180" stroke="#2E5C94" stroke-width="0.12"/><line x1="10.0" y1="190" x2="421.8" y2="190" stroke="#2E5C94" stroke-width="0.12"/><line x1="10.0" y1="200" x2="421.8" y2="200" stroke="#2E5C94" stroke-width="0.12"/><line x1="10.0" y1="210" x2="421.8" y2="210" stroke="#2E5C94" stroke-width="0.12"/><line x1="10.0" y1="220" x2="421.8" y2="220" stroke="#2E5C94" stroke-width="0.12"/><line x1="10.0" y1="230" x2="421.8" y2="230" stroke="#2E5C94" stroke-width="0.12"/><line x1="10.0" y1="240" x2="421.8" y2="240" stroke="#2E5C94" stroke-width="0.12"/><line x1="10.0" y1="250" x2="421.8" y2="250" stroke="#2E5C94" stroke-width="0.12"/><line x1="10.0" y1="260" x2="421.8" y2="260" stroke="#2E5C94" stroke-width="0.12"/><text x="16.00" y="19.00" font-family="IBM Plex Sans, Helvetica, Arial, sans-serif" font-size="3.2" font-weight="600" fill="#FFD37F" text-anchor="start">CONCEPT, NOT FOR FABRICATION</text><svg x="60.58" y="145.45" width="80.17" height="28.18" viewBox="-80.175 -28.175 160.35 56.35" preserveAspectRatio="xMidYMid meet" overflow="visible"><g transform="scale(1,-1)" stroke-linecap="round">
    <g fill="none" stroke="rgb(238,245,255)" stroke-width="0.1800" id="Visible">
      <line x1="-80.0" y1="6.0" x2="-80.0" y2="24.0" />
      <path d="M -80.0,24.0 L -79.937122,24.0 L -79.749279,24.0 L -79.438833,24.0 L -79.009689,24.0 L -78.467242,24.0 L -77.818315,24.0 L -77.071068,24.0 L -76.234898,24.0 L -75.320321,24.0 L -74.338837,24.0 L -73.302791,24.0 L -72.225209,24.0 L -71.119645,24.0 L -70.0,24.0" />
      <line x1="-70.0" y1="24.0" x2="70.0" y2="24.0" />
      <path d="M 80.0,24.0 L 79.937122,24.0 L 79.749279,24.0 L 79.438833,24.0 L 79.009689,24.0 L 78.467242,24.0 L 77.818315,24.0 L 77.071068,24.0 L 76.234898,24.0 L 75.320321,24.0 L 74.338837,24.0 L 73.302791,24.0 L 72.225209,24.0 L 71.119645,24.0 L 70.0,24.0" />
      <path d="M -80.0,6.0 L -79.937122,6.0 L -79.749279,6.0 L -79.438833,6.0 L -79.009689,6.0 L -78.467242,6.0 L -77.818315,6.0 L -77.071068,6.0 L -76.234898,6.0 L -75.320321,6.0 L -74.338837,6.0 L -73.302791,6.0 L -72.225209,6.0 L -71.119645,6.0 L -70.0,6.0" />
      <line x1="-70.0" y1="6.0" x2="70.0" y2="6.0" />
      <path d="M 80.0,6.0 L 79.937122,6.0 L 79.749279,6.0 L 79.438833,6.0 L 79.009689,6.0 L 78.467242,6.0 L 77.818315,6.0 L 77.071068,6.0 L 76.234898,6.0 L 75.320321,6.0 L 74.338837,6.0 L 73.302791,6.0 L 72.225209,6.0 L 71.119645,6.0 L 70.0,6.0" />
      <line x1="80.0" y1="6.0" x2="80.0" y2="24.0" />
      <line x1="76.0" y1="-28.0" x2="70.0" y2="-10.0" />
      <path d="M 34.0,-28.0 L 34.526514,-28.0 L 36.079654,-28.0 L 38.581539,-28.0 L 41.906714,-28.0 L 45.888441,-28.0 L 50.32706,-28.0 L 55.0,-28.0 L 59.67294,-28.0 L 64.111559,-28.0 L 68.093286,-28.0 L 71.418461,-28.0 L 73.920346,-28.0 L 75.473486,-28.0 L 76.0,-28.0" />
      <line x1="-80.0" y1="-10.0" x2="-80.0" y2="6.0" />
      <path d="M -80.0,6.0 L -79.937122,6.0 L -79.749279,6.0 L -79.438833,6.0 L -79.009689,6.0 L -78.467242,6.0 L -77.818315,6.0 L -77.071068,6.0 L -76.234898,6.0 L -75.320321,6.0 L -74.338837,6.0 L -73.302791,6.0 L -72.225209,6.0 L -71.119645,6.0 L -70.0,6.0" />
      <line x1="-70.0" y1="6.0" x2="70.0" y2="6.0" />
      <path d="M 80.0,6.0 L 79.937122,6.0 L 79.749279,6.0 L 79.438833,6.0 L 79.009689,6.0 L 78.467242,6.0 L 77.818315,6.0 L 77.071068,6.0 L 76.234898,6.0 L 75.320321,6.0 L 74.338837,6.0 L 73.302791,6.0 L 72.225209,6.0 L 71.119645,6.0 L 70.0,6.0" />
      <path d="M -80.0,-10.0 L -79.937122,-10.0 L -79.749279,-10.0 L -79.438833,-10.0 L -79.009689,-10.0 L -78.467242,-10.0 L -77.818315,-10.0 L -77.071068,-10.0 L -76.234898,-10.0 L -75.320321,-10.0 L -74.338837,-10.0 L -73.302791,-10.0 L -72.225209,-10.0 L -71.119645,-10.0 L -70.0,-10.0" />
      <line x1="-70.0" y1="-10.0" x2="-43.0" y2="-10.0" />
      <line x1="3.0" y1="-10.0" x2="70.0" y2="-10.0" />
      <path d="M 80.0,-10.0 L 79.937122,-10.0 L 79.749279,-10.0 L 79.438833,-10.0 L 79.009689,-10.0 L 78.467242,-10.0 L 77.818315,-10.0 L 77.071068,-10.0 L 76.234898,-10.0 L 75.320321,-10.0 L 74.338837,-10.0 L 73.302791,-10.0 L 72.225209,-10.0 L 71.119645,-10.0 L 70.0,-10.0" />
      <line x1="80.0" y1="-10.0" x2="80.0" y2="6.0" />
      <path d="M 29.0,28.0 L 29.150433,28.0 L 29.594187,28.0 L 30.309011,28.0 L 31.259061,28.0 L 32.396698,28.0 L 33.664874,28.0 L 35.0,28.0 L 36.335126,28.0 L 37.603302,28.0 L 38.740939,28.0 L 39.690989,28.0 L 40.405813,28.0 L 40.849567,28.0 L 41.0,28.0" />
      <line x1="41.0" y1="24.0" x2="41.0" y2="28.0" />
      <path d="M -43.0,-6.0 L -42.423342,-6.0 L -40.722284,-6.0 L -37.982124,-6.0 L -34.340265,-6.0 L -29.979326,-6.0 L -25.117981,-6.0 L -20.0,-6.0 L -14.882019,-6.0 L -10.020674,-6.0 L -5.659735,-6.0 L -2.017876,-6.0 L 0.722284,-6.0 L 2.423342,-6.0 L 3.0,-6.0" />
      <line x1="3.0" y1="-28.0" x2="3.0" y2="-6.0" />
      <path d="M -43.0,-28.0 L -42.423342,-28.0 L -40.722284,-28.0 L -37.982124,-28.0 L -34.340265,-28.0 L -29.979326,-28.0 L -25.117981,-28.0 L -20.0,-28.0 L -14.882019,-28.0 L -10.020674,-28.0 L -5.659735,-28.0 L -2.017876,-28.0 L 0.722284,-28.0 L 2.423342,-28.0 L 3.0,-28.0" />
      <line x1="-70.0" y1="6.0" x2="-70.0" y2="24.0" />
      <line x1="70.0" y1="6.0" x2="70.0" y2="24.0" />
      <line x1="-70.0" y1="-10.0" x2="-70.0" y2="6.0" />
      <line x1="70.0" y1="-10.0" x2="70.0" y2="6.0" />
      <line x1="40.0" y1="-10.0" x2="34.0" y2="-28.0" />
      <line x1="29.0" y1="24.0" x2="29.0" y2="28.0" />
      <line x1="-43.0" y1="-28.0" x2="-43.0" y2="-6.0" />
    </g>
    <g fill="none" stroke="rgb(175,200,236)" stroke-width="0.3500" id="Hidden" stroke-dasharray="4.200 1.050">
      <line x1="-80.0" y1="6.0" x2="-80.0" y2="24.0" />
      <path d="M -80.0,24.0 L -79.937122,24.0 L -79.749279,24.0 L -79.438833,24.0 L -79.009689,24.0 L -78.467242,24.0 L -77.818315,24.0 L -77.071068,24.0 L -76.234898,24.0 L -75.320321,24.0 L -74.338837,24.0 L -73.302791,24.0 L -72.225209,24.0 L -71.119645,24.0 L -70.0,24.0" />
      <line x1="-70.0" y1="24.0" x2="70.0" y2="24.0" />
      <path d="M 80.0,24.0 L 79.937122,24.0 L 79.749279,24.0 L 79.438833,24.0 L 79.009689,24.0 L 78.467242,24.0 L 77.818315,24.0 L 77.071068,24.0 L 76.234898,24.0 L 75.320321,24.0 L 74.338837,24.0 L 73.302791,24.0 L 72.225209,24.0 L 71.119645,24.0 L 70.0,24.0" />
      <line x1="13.0" y1="24.0" x2="-33.0" y2="24.0" />
      <line x1="13.0" y1="24.0" x2="-33.0" y2="24.0" />
      <path d="M 41.5,24.0 L 41.337031,24.0 L 40.856298,24.0 L 40.081905,24.0 L 39.052684,24.0 L 37.820244,24.0 L 36.446386,24.0 L 35.0,24.0 L 33.553614,24.0 L 32.179756,24.0 L 30.947316,24.0 L 29.918095,24.0 L 29.143702,24.0 L 28.662969,24.0 L 28.5,24.0" />
      <path d="M 28.5,24.0 L 28.662969,24.0 L 29.143702,24.0 L 29.918095,24.0 L 30.947316,24.0 L 32.179756,24.0 L 33.553614,24.0 L 35.0,24.0 L 36.446386,24.0 L 37.820244,24.0 L 39.052684,24.0 L 40.081905,24.0 L 40.856298,24.0 L 41.337031,24.0 L 41.5,24.0" />
      <path d="M -80.0,6.0 L -79.937122,6.0 L -79.749279,6.0 L -79.438833,6.0 L -79.009689,6.0 L -78.467242,6.0 L -77.818315,6.0 L -77.071068,6.0 L -76.234898,6.0 L -75.320321,6.0 L -74.338837,6.0 L -73.302791,6.0 L -72.225209,6.0 L -71.119645,6.0 L -70.0,6.0" />
      <line x1="-70.0" y1="6.0" x2="70.0" y2="6.0" />
      <path d="M 80.0,6.0 L 79.937122,6.0 L 79.749279,6.0 L 79.438833,6.0 L 79.009689,6.0 L 78.467242,6.0 L 77.818315,6.0 L 77.071068,6.0 L 76.234898,6.0 L 75.320321,6.0 L 74.338837,6.0 L 73.302791,6.0 L 72.225209,6.0 L 71.119645,6.0 L 70.0,6.0" />
      <path d="M -77.5,6.0 L -77.452842,6.0 L -77.311959,6.0 L -77.079125,6.0 L -76.757267,6.0 L -76.350431,6.0 L -75.863736,6.0 L -75.303301,6.0 L -74.676174,6.0 L -73.990241,6.0 L -73.254128,6.0 L -72.477093,6.0 L -71.668907,6.0 L -70.839734,6.0 L -70.0,6.0" />
      <line x1="70.0" y1="6.0" x2="-70.0" y2="6.0" />
      <path d="M 70.0,6.0 L 70.839734,6.0 L 71.668907,6.0 L 72.477093,6.0 L 73.254128,6.0 L 73.990241,6.0 L 74.676174,6.0 L 75.303301,6.0 L 75.863736,6.0 L 76.350431,6.0 L 76.757267,6.0 L 77.079125,6.0 L 77.311959,6.0 L 77.452842,6.0 L 77.5,6.0" />
      <path d="M 77.5,6.0 L 77.452842,6.0 L 77.311959,6.0 L 77.079125,6.0 L 76.757267,6.0 L 76.350431,6.0 L 75.863736,6.0 L 75.303301,6.0 L 74.676174,6.0 L 73.990241,6.0 L 73.254128,6.0 L 72.477093,6.0 L 71.668907,6.0 L 70.839734,6.0 L 70.0,6.0" />
      <line x1="70.0" y1="6.0" x2="-70.0" y2="6.0" />
      <path d="M -70.0,6.0 L -70.839734,6.0 L -71.668907,6.0 L -72.477093,6.0 L -73.254128,6.0 L -73.990241,6.0 L -74.676174,6.0 L -75.303301,6.0 L -75.863736,6.0 L -76.350431,6.0 L -76.757267,6.0 L -77.079125,6.0 L -77.311959,6.0 L -77.452842,6.0 L -77.5,6.0" />
      <line x1="80.0" y1="6.0" x2="80.0" y2="24.0" />
      <line x1="13.0" y1="21.505" x2="13.0" y2="24.0" />
      <line x1="-33.0" y1="21.505" x2="-33.0" y2="24.0" />
      <line x1="13.0" y1="21.505" x2="-33.0" y2="21.505" />
      <line x1="13.0" y1="21.505" x2="13.0" y2="24.0" />
      <line x1="-33.0" y1="21.505" x2="-33.0" y2="24.0" />
      <line x1="13.0" y1="21.505" x2="-33.0" y2="21.505" />
      <line x1="41.5" y1="21.505" x2="41.5" y2="24.0" />
      <path d="M 41.5,21.505 L 41.337031,21.505 L 40.856298,21.505 L 40.081905,21.505 L 39.052684,21.505 L 37.820244,21.505 L 36.446386,21.505 L 35.0,21.505 L 33.553614,21.505 L 32.179756,21.505 L 30.947316,21.505 L 29.918095,21.505 L 29.143702,21.505 L 28.662969,21.505 L 28.5,21.505" />
      <path d="M 28.5,21.505 L 28.662969,21.505 L 29.143702,21.505 L 29.918095,21.505 L 30.947316,21.505 L 32.179756,21.505 L 33.553614,21.505 L 35.0,21.505 L 36.446386,21.505 L 37.820244,21.505 L 39.052684,21.505 L 40.081905,21.505 L 40.856298,21.505 L 41.337031,21.505 L 41.5,21.505" />
      <line x1="-77.5" y1="6.0" x2="-77.5" y2="21.505" />
      <path d="M -77.5,21.505 L -77.452842,21.505 L -77.311959,21.505 L -77.079125,21.505 L -76.757267,21.505 L -76.350431,21.505 L -75.863736,21.505 L -75.303301,21.505 L -74.676174,21.505 L -73.990241,21.505 L -73.254128,21.505 L -72.477093,21.505 L -71.668907,21.505 L -70.839734,21.505 L -70.0,21.505" />
      <line x1="-70.0" y1="21.505" x2="70.0" y2="21.505" />
      <line x1="77.5" y1="6.0" x2="77.5" y2="21.505" />
      <path d="M 77.5,21.505 L 77.452842,21.505 L 77.311959,21.505 L 77.079125,21.505 L 76.757267,21.505 L 76.350431,21.505 L 75.863736,21.505 L 75.303301,21.505 L 74.676174,21.505 L 73.990241,21.505 L 73.254128,21.505 L 72.477093,21.505 L 71.668907,21.505 L 70.839734,21.505 L 70.0,21.505" />
      <line x1="77.5" y1="6.0" x2="77.5" y2="21.505" />
      <path d="M 77.5,21.505 L 77.452842,21.505 L 77.311959,21.505 L 77.079125,21.505 L 76.757267,21.505 L 76.350431,21.505 L 75.863736,21.505 L 75.303301,21.505 L 74.676174,21.505 L 73.990241,21.505 L 73.254128,21.505 L 72.477093,21.505 L 71.668907,21.505 L 70.839734,21.505 L 70.0,21.505" />
      <line x1="-70.0" y1="21.505" x2="70.0" y2="21.505" />
      <line x1="-77.5" y1="6.0" x2="-77.5" y2="21.505" />
      <path d="M -77.5,21.505 L -77.452842,21.505 L -77.311959,21.505 L -77.079125,21.505 L -76.757267,21.505 L -76.350431,21.505 L -75.863736,21.505 L -75.303301,21.505 L -74.676174,21.505 L -73.990241,21.505 L -73.254128,21.505 L -72.477093,21.505 L -71.668907,21.505 L -70.839734,21.505 L -70.0,21.505" />
      <line x1="-41.0" y1="12.25" x2="-41.0" y2="21.75" />
      <line x1="-41.0" y1="12.25" x2="-41.0" y2="21.75" />
      <line x1="21.0" y1="12.25" x2="21.0" y2="21.75" />
      <line x1="21.0" y1="12.25" x2="21.0" y2="21.75" />
      <line x1="-41.0" y1="12.25" x2="21.0" y2="12.25" />
      <line x1="-41.0" y1="21.75" x2="21.0" y2="21.75" />
      <line x1="-41.0" y1="12.25" x2="21.0" y2="12.25" />
      <line x1="-41.0" y1="21.75" x2="21.0" y2="21.75" />
      <path d="M 67.0,-4.0 L 66.699135,-4.0 L 65.811626,-4.0 L 64.381978,-4.0 L 62.481878,-4.0 L 60.206605,-4.0 L 57.670251,-4.0 L 55.0,-4.0 L 52.329749,-4.0 L 49.793395,-4.0 L 47.518122,-4.0 L 45.618022,-4.0 L 44.188374,-4.0 L 43.300865,-4.0 L 43.0,-4.0" />
      <path d="M 43.0,-4.0 L 43.300865,-4.0 L 44.188374,-4.0 L 45.618022,-4.0 L 47.518122,-4.0 L 49.793395,-4.0 L 52.329749,-4.0 L 55.0,-4.0 L 57.670251,-4.0 L 60.206605,-4.0 L 62.481878,-4.0 L 64.381978,-4.0 L 65.811626,-4.0 L 66.699135,-4.0 L 67.0,-4.0" />
      <line x1="67.0" y1="-6.0" x2="67.0" y2="-4.0" />
      <path d="M 67.0,-6.0 L 66.699135,-6.0 L 65.811626,-6.0 L 64.381978,-6.0 L 62.481878,-6.0 L 60.206605,-6.0 L 57.670251,-6.0 L 55.0,-6.0 L 52.329749,-6.0 L 49.793395,-6.0 L 47.518122,-6.0 L 45.618022,-6.0 L 44.188374,-6.0 L 43.300865,-6.0 L 43.0,-6.0" />
      <path d="M 43.0,-6.0 L 43.300865,-6.0 L 44.188374,-6.0 L 45.618022,-6.0 L 47.518122,-6.0 L 49.793395,-6.0 L 52.329749,-6.0 L 55.0,-6.0 L 57.670251,-6.0 L 60.206605,-6.0 L 62.481878,-6.0 L 64.381978,-6.0 L 65.811626,-6.0 L 66.699135,-6.0 L 67.0,-6.0" />
      <path d="M 62.0,-4.0 L 61.824495,-4.0 L 61.306782,-4.0 L 60.47282,-4.0 L 59.364429,-4.0 L 58.037186,-4.0 L 56.557647,-4.0 L 55.0,-4.0 L 53.442353,-4.0 L 51.962814,-4.0 L 50.635571,-4.0 L 49.52718,-4.0 L 48.693218,-4.0 L 48.175505,-4.0 L 48.0,-4.0" />
      <path d="M 48.0,-4.0 L 48.175505,-4.0 L 48.693218,-4.0 L 49.52718,-4.0 L 50.635571,-4.0 L 51.962814,-4.0 L 53.442353,-4.0 L 55.0,-4.0 L 56.557647,-4.0 L 58.037186,-4.0 L 59.364429,-4.0 L 60.47282,-4.0 L 61.306782,-4.0 L 61.824495,-4.0 L 62.0,-4.0" />
      <path d="M 62.0,-6.0 L 61.824495,-6.0 L 61.306782,-6.0 L 60.47282,-6.0 L 59.364429,-6.0 L 58.037186,-6.0 L 56.557647,-6.0 L 55.0,-6.0 L 53.442353,-6.0 L 51.962814,-6.0 L 50.635571,-6.0 L 49.52718,-6.0 L 48.693218,-6.0 L 48.175505,-6.0 L 48.0,-6.0" />
      <path d="M 48.0,-6.0 L 48.175505,-6.0 L 48.693218,-6.0 L 49.52718,-6.0 L 50.635571,-6.0 L 51.962814,-6.0 L 53.442353,-6.0 L 55.0,-6.0 L 56.557647,-6.0 L 58.037186,-6.0 L 59.364429,-6.0 L 60.47282,-6.0 L 61.306782,-6.0 L 61.824495,-6.0 L 62.0,-6.0" />
      <line x1="62.0" y1="-6.0" x2="62.0" y2="-4.0" />
      <path d="M 58.0,-2.0 L 57.924784,-2.0 L 57.702907,-2.0 L 57.345494,-2.0 L 56.870469,-2.0 L 56.301651,-2.0 L 55.667563,-2.0 L 55.0,-2.0 L 54.332437,-2.0 L 53.698349,-2.0 L 53.129531,-2.0 L 52.654506,-2.0 L 52.297093,-2.0 L 52.075216,-2.0 L 52.0,-2.0" />
      <path d="M 52.0,-2.0 L 52.075216,-2.0 L 52.297093,-2.0 L 52.654506,-2.0 L 53.129531,-2.0 L 53.698349,-2.0 L 54.332437,-2.0 L 55.0,-2.0 L 55.667563,-2.0 L 56.301651,-2.0 L 56.870469,-2.0 L 57.345494,-2.0 L 57.702907,-2.0 L 57.924784,-2.0 L 58.0,-2.0" />
      <line x1="58.0" y1="-6.0" x2="58.0" y2="-2.0" />
      <path d="M 58.0,-6.0 L 57.924784,-6.0 L 57.702907,-6.0 L 57.345494,-6.0 L 56.870469,-6.0 L 56.301651,-6.0 L 55.667563,-6.0 L 55.0,-6.0 L 54.332437,-6.0 L 53.698349,-6.0 L 53.129531,-6.0 L 52.654506,-6.0 L 52.297093,-6.0 L 52.075216,-6.0 L 52.0,-6.0" />
      <path d="M 52.0,-6.0 L 52.075216,-6.0 L 52.297093,-6.0 L 52.654506,-6.0 L 53.129531,-6.0 L 53.698349,-6.0 L 54.332437,-6.0 L 55.0,-6.0 L 55.667563,-6.0 L 56.301651,-6.0 L 56.870469,-6.0 L 57.345494,-6.0 L 57.702907,-6.0 L 57.924784,-6.0 L 58.0,-6.0" />
      <line x1="41.0" y1="-0.3" x2="41.0" y2="1.3" />
      <line x1="41.0" y1="-0.3" x2="41.0" y2="1.3" />
      <line x1="69.0" y1="-0.3" x2="69.0" y2="1.3" />
      <line x1="69.0" y1="-0.3" x2="69.0" y2="1.3" />
      <line x1="41.0" y1="-0.3" x2="69.0" y2="-0.3" />
      <line x1="41.0" y1="1.3" x2="69.0" y2="1.3" />
      <line x1="41.0" y1="-0.3" x2="69.0" y2="-0.3" />
      <line x1="41.0" y1="1.3" x2="69.0" y2="1.3" />
      <path d="M 67.5,-8.0 L 67.186599,-8.0 L 66.262111,-8.0 L 64.772894,-8.0 L 62.793623,-8.0 L 60.423547,-8.0 L 57.781512,-8.0 L 55.0,-8.0 L 52.218488,-8.0 L 49.576453,-8.0 L 47.206377,-8.0 L 45.227106,-8.0 L 43.737889,-8.0 L 42.813401,-8.0 L 42.5,-8.0" />
      <path d="M 42.5,-8.0 L 42.813401,-8.0 L 43.737889,-8.0 L 45.227106,-8.0 L 47.206377,-8.0 L 49.576453,-8.0 L 52.218488,-8.0 L 55.0,-8.0 L 57.781512,-8.0 L 60.423547,-8.0 L 62.793623,-8.0 L 64.772894,-8.0 L 66.262111,-8.0 L 67.186599,-8.0 L 67.5,-8.0" />
      <line x1="67.5" y1="-10.0" x2="67.5" y2="-8.0" />
      <path d="M 67.5,-10.0 L 67.186599,-10.0 L 66.262111,-10.0 L 64.772894,-10.0 L 62.793623,-10.0 L 60.423547,-10.0 L 57.781512,-10.0 L 55.0,-10.0 L 52.218488,-10.0 L 49.576453,-10.0 L 47.206377,-10.0 L 45.227106,-10.0 L 43.737889,-10.0 L 42.813401,-10.0 L 42.5,-10.0" />
      <path d="M 42.5,-10.0 L 42.813401,-10.0 L 43.737889,-10.0 L 45.227106,-10.0 L 47.206377,-10.0 L 49.576453,-10.0 L 52.218488,-10.0 L 55.0,-10.0 L 57.781512,-10.0 L 60.423547,-10.0 L 62.793623,-10.0 L 64.772894,-10.0 L 66.262111,-10.0 L 67.186599,-10.0 L 67.5,-10.0" />
      <path d="M 70.0,-10.0 L 69.623919,-10.0 L 68.514533,-10.0 L 66.727472,-10.0 L 64.352347,-10.0 L 61.508256,-10.0 L 58.337814,-10.0 L 55.0,-10.0 L 51.662186,-10.0 L 48.491744,-10.0 L 45.647653,-10.0 L 43.272528,-10.0 L 41.485467,-10.0 L 40.376081,-10.0 L 40.0,-10.0" />
      <path d="M 40.0,-10.0 L 40.376081,-10.0 L 41.485467,-10.0 L 43.272528,-10.0 L 45.647653,-10.0 L 48.491744,-10.0 L 51.662186,-10.0 L 55.0,-10.0 L 58.337814,-10.0 L 61.508256,-10.0 L 64.352347,-10.0 L 66.727472,-10.0 L 68.514533,-10.0 L 69.623919,-10.0 L 70.0,-10.0" />
      <path d="M 76.0,-28.0 L 75.473486,-28.0 L 73.920346,-28.0 L 71.418461,-28.0 L 68.093286,-28.0 L 64.111559,-28.0 L 59.67294,-28.0 L 55.0,-28.0 L 50.32706,-28.0 L 45.888441,-28.0 L 41.906714,-28.0 L 38.581539,-28.0 L 36.079654,-28.0 L 34.526514,-28.0 L 34.0,-28.0" />
      <path d="M 67.503052,-10.0 L 67.189575,-10.0 L 66.264861,-10.0 L 64.77528,-10.0 L 62.795526,-10.0 L 60.424871,-10.0 L 57.782191,-10.0 L 55.0,-10.0 L 52.217809,-10.0 L 49.575129,-10.0 L 47.204474,-10.0 L 45.22472,-10.0 L 43.735139,-10.0 L 42.810425,-10.0 L 42.496948,-10.0" />
      <path d="M 42.496948,-10.0 L 42.810425,-10.0 L 43.735139,-10.0 L 45.22472,-10.0 L 47.204474,-10.0 L 49.575129,-10.0 L 52.217809,-10.0 L 55.0,-10.0 L 57.782191,-10.0 L 60.424871,-10.0 L 62.795526,-10.0 L 64.77528,-10.0 L 66.264861,-10.0 L 67.189575,-10.0 L 67.503052,-10.0" />
      <path d="M 72.996948,-28.0 L 72.545727,-28.0 L 71.21469,-28.0 L 69.07058,-28.0 L 66.220913,-28.0 L 62.808583,-28.0 L 59.004698,-28.0 L 55.0,-28.0 L 50.995302,-28.0 L 47.191417,-28.0 L 43.779087,-28.0 L 40.92942,-28.0 L 38.78531,-28.0 L 37.454273,-28.0 L 37.003052,-28.0" />
      <path d="M 37.003052,-28.0 L 37.454273,-28.0 L 38.78531,-28.0 L 40.92942,-28.0 L 43.779087,-28.0 L 47.191417,-28.0 L 50.995302,-28.0 L 55.0,-28.0 L 59.004698,-28.0 L 62.808583,-28.0 L 66.220913,-28.0 L 69.07058,-28.0 L 71.21469,-28.0 L 72.545727,-28.0 L 72.996948,-28.0" />
      <line x1="72.996948" y1="-28.0" x2="67.503052" y2="-10.0" />
      <path d="M 2.5,-7.25 L 2.5,-7.018083 L 2.5,-6.333962 L 2.5,-5.231941 L 2.5,-3.767281 L 2.5,-2.013425 L 2.5,-0.058319 L 2.5,2.0 L 2.5,4.058319 L 2.5,6.013425 L 2.5,7.767281 L 2.5,9.231941 L 2.5,10.333962 L 2.5,11.018083 L 2.5,11.25" />
      <path d="M 2.5,11.25 L 2.5,11.018083 L 2.5,10.333962 L 2.5,9.231941 L 2.5,7.767281 L 2.5,6.013425 L 2.5,4.058319 L 2.5,2.0 L 2.5,-0.058319 L 2.5,-2.013425 L 2.5,-3.767281 L 2.5,-5.231941 L 2.5,-6.333962 L 2.5,-7.018083 L 2.5,-7.25" />
      <line x1="-62.5" y1="-7.25" x2="2.5" y2="-7.25" />
      <path d="M -62.5,-7.25 L -62.5,-7.018083 L -62.5,-6.333962 L -62.5,-5.231941 L -62.5,-3.767281 L -62.5,-2.013425 L -62.5,-0.058319 L -62.5,2.0 L -62.5,4.058319 L -62.5,6.013425 L -62.5,7.767281 L -62.5,9.231941 L -62.5,10.333962 L -62.5,11.018083 L -62.5,11.25" />
      <path d="M -62.5,11.25 L -62.5,11.018083 L -62.5,10.333962 L -62.5,9.231941 L -62.5,7.767281 L -62.5,6.013425 L -62.5,4.058319 L -62.5,2.0 L -62.5,-0.058319 L -62.5,-2.013425 L -62.5,-3.767281 L -62.5,-5.231941 L -62.5,-6.333962 L -62.5,-7.018083 L -62.5,-7.25" />
      <line x1="9.0" y1="-6.5" x2="9.0" y2="-4.5" />
      <line x1="9.0" y1="-6.5" x2="9.0" y2="-4.5" />
      <line x1="31.0" y1="-6.5" x2="31.0" y2="-4.5" />
      <line x1="31.0" y1="-6.5" x2="31.0" y2="-4.5" />
      <line x1="9.0" y1="-6.5" x2="31.0" y2="-6.5" />
      <line x1="9.0" y1="-4.5" x2="31.0" y2="-4.5" />
      <line x1="9.0" y1="-6.5" x2="31.0" y2="-6.5" />
      <line x1="9.0" y1="-4.5" x2="31.0" y2="-4.5" />
      <line x1="-80.0" y1="-10.0" x2="-80.0" y2="6.0" />
      <path d="M -80.0,6.0 L -79.937122,6.0 L -79.749279,6.0 L -79.438833,6.0 L -79.009689,6.0 L -78.467242,6.0 L -77.818315,6.0 L -77.071068,6.0 L -76.234898,6.0 L -75.320321,6.0 L -74.338837,6.0 L -73.302791,6.0 L -72.225209,6.0 L -71.119645,6.0 L -70.0,6.0" />
      <line x1="-70.0" y1="6.0" x2="70.0" y2="6.0" />
      <path d="M 80.0,6.0 L 79.937122,6.0 L 79.749279,6.0 L 79.438833,6.0 L 79.009689,6.0 L 78.467242,6.0 L 77.818315,6.0 L 77.071068,6.0 L 76.234898,6.0 L 75.320321,6.0 L 74.338837,6.0 L 73.302791,6.0 L 72.225209,6.0 L 71.119645,6.0 L 70.0,6.0" />
      <path d="M -77.5,6.0 L -77.452842,6.0 L -77.311959,6.0 L -77.079125,6.0 L -76.757267,6.0 L -76.350431,6.0 L -75.863736,6.0 L -75.303301,6.0 L -74.676174,6.0 L -73.990241,6.0 L -73.254128,6.0 L -72.477093,6.0 L -71.668907,6.0 L -70.839734,6.0 L -70.0,6.0" />
      <line x1="70.0" y1="6.0" x2="-70.0" y2="6.0" />
      <path d="M 70.0,6.0 L 70.839734,6.0 L 71.668907,6.0 L 72.477093,6.0 L 73.254128,6.0 L 73.990241,6.0 L 74.676174,6.0 L 75.303301,6.0 L 75.863736,6.0 L 76.350431,6.0 L 76.757267,6.0 L 77.079125,6.0 L 77.311959,6.0 L 77.452842,6.0 L 77.5,6.0" />
      <path d="M 77.5,6.0 L 77.452842,6.0 L 77.311959,6.0 L 77.079125,6.0 L 76.757267,6.0 L 76.350431,6.0 L 75.863736,6.0 L 75.303301,6.0 L 74.676174,6.0 L 73.990241,6.0 L 73.254128,6.0 L 72.477093,6.0 L 71.668907,6.0 L 70.839734,6.0 L 70.0,6.0" />
      <line x1="70.0" y1="6.0" x2="-70.0" y2="6.0" />
      <path d="M -70.0,6.0 L -70.839734,6.0 L -71.668907,6.0 L -72.477093,6.0 L -73.254128,6.0 L -73.990241,6.0 L -74.676174,6.0 L -75.303301,6.0 L -75.863736,6.0 L -76.350431,6.0 L -76.757267,6.0 L -77.079125,6.0 L -77.311959,6.0 L -77.452842,6.0 L -77.5,6.0" />
      <path d="M -80.0,-10.0 L -79.937122,-10.0 L -79.749279,-10.0 L -79.438833,-10.0 L -79.009689,-10.0 L -78.467242,-10.0 L -77.818315,-10.0 L -77.071068,-10.0 L -76.234898,-10.0 L -75.320321,-10.0 L -74.338837,-10.0 L -73.302791,-10.0 L -72.225209,-10.0 L -71.119645,-10.0 L -70.0,-10.0" />
      <line x1="-43.0" y1="-10.0" x2="3.0" y2="-10.0" />
      <line x1="-70.0" y1="-10.0" x2="70.0" y2="-10.0" />
      <path d="M 80.0,-10.0 L 79.937122,-10.0 L 79.749279,-10.0 L 79.438833,-10.0 L 79.009689,-10.0 L 78.467242,-10.0 L 77.818315,-10.0 L 77.071068,-10.0 L 76.234898,-10.0 L 75.320321,-10.0 L 74.338837,-10.0 L 73.302791,-10.0 L 72.225209,-10.0 L 71.119645,-10.0 L 70.0,-10.0" />
      <path d="M 68.0,-10.0 L 67.674063,-10.0 L 66.712595,-10.0 L 65.163809,-10.0 L 63.105367,-10.0 L 60.640489,-10.0 L 57.892772,-10.0 L 55.0,-10.0 L 52.107228,-10.0 L 49.359511,-10.0 L 46.894633,-10.0 L 44.836191,-10.0 L 43.287405,-10.0 L 42.325937,-10.0 L 42.0,-10.0" />
      <path d="M 42.0,-10.0 L 42.325937,-10.0 L 43.287405,-10.0 L 44.836191,-10.0 L 46.894633,-10.0 L 49.359511,-10.0 L 52.107228,-10.0 L 55.0,-10.0 L 57.892772,-10.0 L 60.640489,-10.0 L 63.105367,-10.0 L 65.163809,-10.0 L 66.712595,-10.0 L 67.674063,-10.0 L 68.0,-10.0" />
      <line x1="80.0" y1="-10.0" x2="80.0" y2="6.0" />
      <line x1="-77.5" y1="-7.505" x2="-77.5" y2="6.0" />
      <path d="M -77.5,-7.505 L -77.452842,-7.505 L -77.311959,-7.505 L -77.079125,-7.505 L -76.757267,-7.505 L -76.350431,-7.505 L -75.863736,-7.505 L -75.303301,-7.505 L -74.676174,-7.505 L -73.990241,-7.505 L -73.254128,-7.505 L -72.477093,-7.505 L -71.668907,-7.505 L -70.839734,-7.505 L -70.0,-7.505" />
      <line x1="-70.0" y1="-7.505" x2="70.0" y2="-7.505" />
      <line x1="77.5" y1="-7.505" x2="77.5" y2="6.0" />
      <path d="M 77.5,-7.505 L 77.452842,-7.505 L 77.311959,-7.505 L 77.079125,-7.505 L 76.757267,-7.505 L 76.350431,-7.505 L 75.863736,-7.505 L 75.303301,-7.505 L 74.676174,-7.505 L 73.990241,-7.505 L 73.254128,-7.505 L 72.477093,-7.505 L 71.668907,-7.505 L 70.839734,-7.505 L 70.0,-7.505" />
      <line x1="77.5" y1="-7.505" x2="77.5" y2="6.0" />
      <path d="M 77.5,-7.505 L 77.452842,-7.505 L 77.311959,-7.505 L 77.079125,-7.505 L 76.757267,-7.505 L 76.350431,-7.505 L 75.863736,-7.505 L 75.303301,-7.505 L 74.676174,-7.505 L 73.990241,-7.505 L 73.254128,-7.505 L 72.477093,-7.505 L 71.668907,-7.505 L 70.839734,-7.505 L 70.0,-7.505" />
      <line x1="-70.0" y1="-7.505" x2="70.0" y2="-7.505" />
      <line x1="-77.5" y1="-7.505" x2="-77.5" y2="6.0" />
      <path d="M -77.5,-7.505 L -77.452842,-7.505 L -77.311959,-7.505 L -77.079125,-7.505 L -76.757267,-7.505 L -76.350431,-7.505 L -75.863736,-7.505 L -75.303301,-7.505 L -74.676174,-7.505 L -73.990241,-7.505 L -73.254128,-7.505 L -72.477093,-7.505 L -71.668907,-7.505 L -70.839734,-7.505 L -70.0,-7.505" />
      <path d="M 68.0,-7.505 L 67.674063,-7.505 L 66.712595,-7.505 L 65.163809,-7.505 L 63.105367,-7.505 L 60.640489,-7.505 L 57.892772,-7.505 L 55.0,-7.505 L 52.107228,-7.505 L 49.359511,-7.505 L 46.894633,-7.505 L 44.836191,-7.505 L 43.287405,-7.505 L 42.325937,-7.505 L 42.0,-7.505" />
      <path d="M 42.0,-7.505 L 42.325937,-7.505 L 43.287405,-7.505 L 44.836191,-7.505 L 46.894633,-7.505 L 49.359511,-7.505 L 52.107228,-7.505 L 55.0,-7.505 L 57.892772,-7.505 L 60.640489,-7.505 L 63.105367,-7.505 L 65.163809,-7.505 L 66.712595,-7.505 L 67.674063,-7.505 L 68.0,-7.505" />
      <line x1="68.0" y1="-10.0" x2="68.0" y2="-7.505" />
      <path d="M 41.0,28.0 L 40.849567,28.0 L 40.405813,28.0 L 39.690989,28.0 L 38.740939,28.0 L 37.603302,28.0 L 36.335126,28.0 L 35.0,28.0 L 33.664874,28.0 L 32.396698,28.0 L 31.259061,28.0 L 30.309011,28.0 L 29.594187,28.0 L 29.150433,28.0 L 29.0,28.0" />
      <line x1="41.0" y1="23.0" x2="41.0" y2="24.0" />
      <path d="M 41.0,23.0 L 40.849567,23.0 L 40.405813,23.0 L 39.690989,23.0 L 38.740939,23.0 L 37.603302,23.0 L 36.335126,23.0 L 35.0,23.0 L 33.664874,23.0 L 32.396698,23.0 L 31.259061,23.0 L 30.309011,23.0 L 29.594187,23.0 L 29.150433,23.0 L 29.0,23.0" />
      <path d="M 29.0,23.0 L 29.150433,23.0 L 29.594187,23.0 L 30.309011,23.0 L 31.259061,23.0 L 32.396698,23.0 L 33.664874,23.0 L 35.0,23.0 L 36.335126,23.0 L 37.603302,23.0 L 38.740939,23.0 L 39.690989,23.0 L 40.405813,23.0 L 40.849567,23.0 L 41.0,23.0" />
      <path d="M 3.0,-6.0 L 2.423342,-6.0 L 0.722284,-6.0 L -2.017876,-6.0 L -5.659735,-6.0 L -10.020674,-6.0 L -14.882019,-6.0 L -20.0,-6.0 L -25.117981,-6.0 L -29.979326,-6.0 L -34.340265,-6.0 L -37.982124,-6.0 L -40.722284,-6.0 L -42.423342,-6.0 L -43.0,-6.0" />
      <path d="M 3.0,-28.0 L 2.423342,-28.0 L 0.722284,-28.0 L -2.017876,-28.0 L -5.659735,-28.0 L -10.020674,-28.0 L -14.882019,-28.0 L -20.0,-28.0 L -25.117981,-28.0 L -29.979326,-28.0 L -34.340265,-28.0 L -37.982124,-28.0 L -40.722284,-28.0 L -42.423342,-28.0 L -43.0,-28.0" />
      <path d="M 0.5,-6.0 L -0.013978,-6.0 L -1.530138,-6.0 L -3.972455,-6.0 L -7.218459,-6.0 L -11.105383,-6.0 L -15.438321,-6.0 L -20.0,-6.0 L -24.561679,-6.0 L -28.894617,-6.0 L -32.781541,-6.0 L -36.027545,-6.0 L -38.469862,-6.0 L -39.986022,-6.0 L -40.5,-6.0" />
      <path d="M -40.5,-6.0 L -39.986022,-6.0 L -38.469862,-6.0 L -36.027545,-6.0 L -32.781541,-6.0 L -28.894617,-6.0 L -24.561679,-6.0 L -20.0,-6.0 L -15.438321,-6.0 L -11.105383,-6.0 L -7.218459,-6.0 L -3.972455,-6.0 L -1.530138,-6.0 L -0.013978,-6.0 L 0.5,-6.0" />
      <line x1="0.5" y1="-26.0" x2="0.5" y2="-6.0" />
      <path d="M 0.5,-26.0 L -0.013978,-26.0 L -1.530138,-26.0 L -3.972455,-26.0 L -7.218459,-26.0 L -11.105383,-26.0 L -15.438321,-26.0 L -20.0,-26.0 L -24.561679,-26.0 L -28.894617,-26.0 L -32.781541,-26.0 L -36.027545,-26.0 L -38.469862,-26.0 L -39.986022,-26.0 L -40.5,-26.0" />
      <path d="M -40.5,-26.0 L -39.986022,-26.0 L -38.469862,-26.0 L -36.027545,-26.0 L -32.781541,-26.0 L -28.894617,-26.0 L -24.561679,-26.0 L -20.0,-26.0 L -15.438321,-26.0 L -11.105383,-26.0 L -7.218459,-26.0 L -3.972455,-26.0 L -1.530138,-26.0 L -0.013978,-26.0 L 0.5,-26.0" />
      <path d="M -1.0,-24.0 L -1.47637,-24.0 L -2.881592,-24.0 L -5.145202,-24.0 L -8.153694,-24.0 L -11.756209,-24.0 L -15.772102,-24.0 L -20.0,-24.0 L -24.227898,-24.0 L -28.243791,-24.0 L -31.846306,-24.0 L -34.854798,-24.0 L -37.118408,-24.0 L -38.52363,-24.0 L -39.0,-24.0" />
      <path d="M -39.0,-24.0 L -38.52363,-24.0 L -37.118408,-24.0 L -34.854798,-24.0 L -31.846306,-24.0 L -28.243791,-24.0 L -24.227898,-24.0 L -20.0,-24.0 L -15.772102,-24.0 L -11.756209,-24.0 L -8.153694,-24.0 L -5.145202,-24.0 L -2.881592,-24.0 L -1.47637,-24.0 L -1.0,-24.0" />
      <line x1="-1.0" y1="-26.0" x2="-1.0" y2="-24.0" />
      <path d="M -1.0,-26.0 L -1.47637,-26.0 L -2.881592,-26.0 L -5.145202,-26.0 L -8.153694,-26.0 L -11.756209,-26.0 L -15.772102,-26.0 L -20.0,-26.0 L -24.227898,-26.0 L -28.243791,-26.0 L -31.846306,-26.0 L -34.854798,-26.0 L -37.118408,-26.0 L -38.52363,-26.0 L -39.0,-26.0" />
      <path d="M -39.0,-26.0 L -38.52363,-26.0 L -37.118408,-26.0 L -34.854798,-26.0 L -31.846306,-26.0 L -28.243791,-26.0 L -24.227898,-26.0 L -20.0,-26.0 L -15.772102,-26.0 L -11.756209,-26.0 L -8.153694,-26.0 L -5.145202,-26.0 L -2.881592,-26.0 L -1.47637,-26.0 L -1.0,-26.0" />
      <line x1="28.5" y1="21.505" x2="28.5" y2="24.0" />
      <line x1="43.0" y1="-6.0" x2="43.0" y2="-4.0" />
      <line x1="48.0" y1="-6.0" x2="48.0" y2="-4.0" />
      <line x1="52.0" y1="-6.0" x2="52.0" y2="-2.0" />
      <line x1="42.5" y1="-10.0" x2="42.5" y2="-8.0" />
      <line x1="42.496948" y1="-10.0" x2="37.003052" y2="-28.0" />
      <line x1="-62.5" y1="11.25" x2="2.5" y2="11.25" />
      <line x1="42.0" y1="-10.0" x2="42.0" y2="-7.505" />
      <line x1="29.0" y1="23.0" x2="29.0" y2="24.0" />
      <line x1="-40.5" y1="-26.0" x2="-40.5" y2="-6.0" />
      <line x1="-39.0" y1="-26.0" x2="-39.0" y2="-24.0" />
      <line x1="-70.0" y1="6.0" x2="-70.0" y2="24.0" />
      <line x1="70.0" y1="6.0" x2="70.0" y2="24.0" />
      <line x1="-70.0" y1="6.0" x2="-70.0" y2="21.505" />
      <line x1="70.0" y1="6.0" x2="70.0" y2="21.505" />
      <line x1="70.0" y1="6.0" x2="70.0" y2="21.505" />
      <line x1="-70.0" y1="6.0" x2="-70.0" y2="21.505" />
      <line x1="-70.0" y1="-10.0" x2="-70.0" y2="6.0" />
      <line x1="70.0" y1="-10.0" x2="70.0" y2="6.0" />
      <line x1="-70.0" y1="-7.505" x2="-70.0" y2="6.0" />
      <line x1="70.0" y1="-7.505" x2="70.0" y2="6.0" />
      <line x1="70.0" y1="-7.505" x2="70.0" y2="6.0" />
      <line x1="-70.0" y1="-7.505" x2="-70.0" y2="6.0" />
    </g>
  </g>
</svg><text x="100.66" y="179.62" font-family="IBM Plex Sans, Helvetica, Arial, sans-serif" font-size="2.8" font-weight="600" fill="#EEF5FF" text-anchor="middle">FRONT VIEW</text><text x="100.66" y="183.62" font-family="IBM Plex Sans, Helvetica, Arial, sans-serif" font-size="2.2" font-weight="400" fill="#AFC8EC" text-anchor="middle">Scale 1:2</text><svg x="60.58" y="49.77" width="80.17" height="69.67" viewBox="-80.175 -69.675 160.35 139.35" preserveAspectRatio="xMidYMid meet" overflow="visible"><g transform="scale(1,-1)" stroke-linecap="round">
    <g fill="none" stroke="rgb(238,245,255)" stroke-width="0.1800" id="Visible">
      <line x1="-80.0" y1="17.5" x2="-80.0" y2="59.5" />
      <path d="M -80.0,17.5 A 10.0,10.0 -90.0 0,1 -70.0,7.5" />
      <path d="M -80.0,59.5 A 10.0,10.0 -90.0 0,0 -70.0,69.5" />
      <line x1="-70.0" y1="7.5" x2="70.0" y2="7.5" />
      <line x1="-70.0" y1="69.5" x2="70.0" y2="69.5" />
      <path d="M 80.0,17.5 A 10.0,10.0 -90.0 0,0 70.0,7.5" />
      <path d="M 80.0,59.5 A 10.0,10.0 -90.0 0,1 70.0,69.5" />
      <line x1="80.0" y1="17.5" x2="80.0" y2="59.5" />
      <line x1="13.0" y1="26.5" x2="-33.0" y2="26.5" />
      <line x1="13.0" y1="26.5" x2="13.0" y2="50.5" />
      <line x1="-33.0" y1="26.5" x2="-33.0" y2="50.5" />
      <line x1="13.0" y1="50.5" x2="-33.0" y2="50.5" />
      <circle cx="35.0" cy="38.5" r="6.5" />
      <line x1="41.0" y1="36.0" x2="41.0" y2="41.0" />
      <line x1="31.0" y1="33.376525" x2="31.0" y2="34.027864" />
      <line x1="31.0" y1="42.972136" x2="31.0" y2="43.623475" />
      <line x1="-80.0" y1="17.5" x2="-80.0" y2="59.5" />
      <line x1="-70.0" y1="7.5" x2="70.0" y2="7.5" />
      <line x1="-70.0" y1="69.5" x2="70.0" y2="69.5" />
      <line x1="80.0" y1="17.5" x2="80.0" y2="59.5" />
      <circle cx="35.0" cy="38.5" r="6.0" />
      <circle cx="-20.0" cy="-46.5" r="23.0" />
      <circle cx="-20.0" cy="-46.5" r="20.5" />
      <circle cx="-20.0" cy="-46.5" r="19.0" />
    </g>
    <g fill="none" stroke="rgb(175,200,236)" stroke-width="0.3500" id="Hidden" stroke-dasharray="4.200 1.050">
      <line x1="-80.0" y1="17.5" x2="-80.0" y2="59.5" />
      <path d="M -80.0,17.5 A 10.0,10.0 -90.0 0,1 -70.0,7.5" />
      <path d="M -80.0,59.5 A 10.0,10.0 -90.0 0,0 -70.0,69.5" />
      <line x1="-70.0" y1="7.5" x2="70.0" y2="7.5" />
      <line x1="-70.0" y1="69.5" x2="70.0" y2="69.5" />
      <path d="M 80.0,17.5 A 10.0,10.0 -90.0 0,0 70.0,7.5" />
      <path d="M 80.0,59.5 A 10.0,10.0 -90.0 0,1 70.0,69.5" />
      <line x1="80.0" y1="17.5" x2="80.0" y2="59.5" />
      <path d="M -77.5,17.5 A 7.5,7.5 180.0 0,1 -70.0,10.0" />
      <line x1="70.0" y1="10.0" x2="-70.0" y2="10.0" />
      <path d="M 70.0,10.0 A 7.5,7.5 0.0 0,1 77.5,17.5" />
      <line x1="77.5" y1="17.5" x2="77.5" y2="59.5" />
      <path d="M 77.5,59.5 A 7.5,7.5 0.0 0,1 70.0,67.0" />
      <line x1="70.0" y1="67.0" x2="-70.0" y2="67.0" />
      <path d="M -70.0,67.0 A 7.5,7.5 180.0 0,1 -77.5,59.5" />
      <line x1="-77.5" y1="17.5" x2="-77.5" y2="59.5" />
      <line x1="13.0" y1="26.5" x2="-33.0" y2="26.5" />
      <line x1="13.0" y1="26.5" x2="13.0" y2="50.5" />
      <line x1="-33.0" y1="26.5" x2="-33.0" y2="50.5" />
      <line x1="13.0" y1="50.5" x2="-33.0" y2="50.5" />
      <circle cx="35.0" cy="38.5" r="6.5" />
      <path d="M -77.5,17.5 A 7.5,7.5 -90.0 0,1 -70.0,10.0" />
      <line x1="-70.0" y1="10.0" x2="70.0" y2="10.0" />
      <path d="M 77.5,17.5 A 7.5,7.5 -90.0 0,0 70.0,10.0" />
      <line x1="77.5" y1="17.5" x2="77.5" y2="59.5" />
      <path d="M 77.5,59.5 A 7.5,7.5 -90.0 0,1 70.0,67.0" />
      <line x1="-70.0" y1="67.0" x2="70.0" y2="67.0" />
      <path d="M -77.5,59.5 A 7.5,7.5 -90.0 0,0 -70.0,67.0" />
      <line x1="-77.5" y1="17.5" x2="-77.5" y2="59.5" />
      <line x1="-41.0" y1="25.5" x2="-41.0" y2="51.5" />
      <line x1="-41.0" y1="25.5" x2="-41.0" y2="51.5" />
      <line x1="21.0" y1="25.5" x2="21.0" y2="51.5" />
      <line x1="21.0" y1="25.5" x2="21.0" y2="51.5" />
      <line x1="-41.0" y1="25.5" x2="21.0" y2="25.5" />
      <line x1="-41.0" y1="25.5" x2="21.0" y2="25.5" />
      <line x1="-41.0" y1="51.5" x2="21.0" y2="51.5" />
      <line x1="-41.0" y1="51.5" x2="21.0" y2="51.5" />
      <circle cx="55.0" cy="38.5" r="12.0" />
      <circle cx="55.0" cy="38.5" r="12.0" />
      <circle cx="55.0" cy="38.5" r="7.0" />
      <circle cx="55.0" cy="38.5" r="7.0" />
      <circle cx="55.0" cy="38.5" r="3.0" />
      <circle cx="55.0" cy="38.5" r="3.0" />
      <line x1="41.0" y1="24.5" x2="41.0" y2="36.0" />
      <line x1="41.0" y1="41.0" x2="41.0" y2="52.5" />
      <line x1="41.0" y1="24.5" x2="41.0" y2="52.5" />
      <line x1="69.0" y1="24.5" x2="69.0" y2="52.5" />
      <line x1="69.0" y1="24.5" x2="69.0" y2="52.5" />
      <line x1="41.0" y1="24.5" x2="69.0" y2="24.5" />
      <line x1="41.0" y1="24.5" x2="69.0" y2="24.5" />
      <line x1="41.0" y1="52.5" x2="69.0" y2="52.5" />
      <line x1="41.0" y1="52.5" x2="69.0" y2="52.5" />
      <circle cx="55.0" cy="38.5" r="12.5" />
      <circle cx="55.0" cy="38.5" r="12.5" />
      <circle cx="55.0" cy="38.5" r="15.0" />
      <circle cx="55.0" cy="38.5" r="21.0" />
      <circle cx="55.0" cy="38.5" r="12.503052164261934" />
      <circle cx="55.0" cy="38.5" r="17.99694783573807" />
      <path d="M 2.5,38.5 L 2.5,39.535671 L 2.5,40.558319 L 2.5,41.555081 L 2.5,42.513425 L 2.5,43.421297 L 2.5,44.267281 L 2.5,45.040738 L 2.5,45.731941 L 2.5,46.332199 L 2.5,46.833962 L 2.5,47.230921 L 2.5,47.518083 L 2.5,47.691838 L 2.5,47.75" />
      <path d="M 2.5,47.75 L 2.5,47.518083 L 2.5,46.833962 L 2.5,45.731941 L 2.5,44.267281 L 2.5,42.513425 L 2.5,40.558319 L 2.5,38.5 L 2.5,36.441681 L 2.5,34.486575 L 2.5,32.732719 L 2.5,31.268059 L 2.5,30.166038 L 2.5,29.481917 L 2.5,29.25" />
      <path d="M 2.5,29.25 L 2.5,29.308162 L 2.5,29.481917 L 2.5,29.769079 L 2.5,30.166038 L 2.5,30.667801 L 2.5,31.268059 L 2.5,31.959262 L 2.5,32.732719 L 2.5,33.578703 L 2.5,34.486575 L 2.5,35.444919 L 2.5,36.441681 L 2.5,37.464329 L 2.5,38.5" />
      <path d="M -62.5,38.5 L -62.5,39.535671 L -62.5,40.558319 L -62.5,41.555081 L -62.5,42.513425 L -62.5,43.421297 L -62.5,44.267281 L -62.5,45.040738 L -62.5,45.731941 L -62.5,46.332199 L -62.5,46.833962 L -62.5,47.230921 L -62.5,47.518083 L -62.5,47.691838 L -62.5,47.75" />
      <path d="M -62.5,47.75 L -62.5,47.518083 L -62.5,46.833962 L -62.5,45.731941 L -62.5,44.267281 L -62.5,42.513425 L -62.5,40.558319 L -62.5,38.5 L -62.5,36.441681 L -62.5,34.486575 L -62.5,32.732719 L -62.5,31.268059 L -62.5,30.166038 L -62.5,29.481917 L -62.5,29.25" />
      <path d="M -62.5,29.25 L -62.5,29.308162 L -62.5,29.481917 L -62.5,29.769079 L -62.5,30.166038 L -62.5,30.667801 L -62.5,31.268059 L -62.5,31.959262 L -62.5,32.732719 L -62.5,33.578703 L -62.5,34.486575 L -62.5,35.444919 L -62.5,36.441681 L -62.5,37.464329 L -62.5,38.5" />
      <line x1="9.0" y1="29.5" x2="9.0" y2="47.5" />
      <line x1="9.0" y1="29.5" x2="9.0" y2="47.5" />
      <line x1="31.0" y1="29.5" x2="31.0" y2="33.376525" />
      <line x1="31.0" y1="34.027864" x2="31.0" y2="42.972136" />
      <line x1="31.0" y1="43.623475" x2="31.0" y2="47.5" />
      <line x1="31.0" y1="29.5" x2="31.0" y2="47.5" />
      <line x1="9.0" y1="29.5" x2="31.0" y2="29.5" />
      <line x1="9.0" y1="29.5" x2="31.0" y2="29.5" />
      <line x1="9.0" y1="47.5" x2="31.0" y2="47.5" />
      <line x1="9.0" y1="47.5" x2="31.0" y2="47.5" />
      <line x1="-80.0" y1="17.5" x2="-80.0" y2="59.5" />
      <path d="M -80.0,17.5 A 10.0,10.0 -90.0 0,1 -70.0,7.5" />
      <path d="M -80.0,59.5 A 10.0,10.0 -90.0 0,0 -70.0,69.5" />
      <path d="M 80.0,17.5 A 10.0,10.0 -90.0 0,0 70.0,7.5" />
      <path d="M 80.0,59.5 A 10.0,10.0 -90.0 0,1 70.0,69.5" />
      <path d="M -77.5,17.5 A 7.5,7.5 180.0 0,1 -70.0,10.0" />
      <line x1="70.0" y1="10.0" x2="-70.0" y2="10.0" />
      <path d="M 70.0,10.0 A 7.5,7.5 0.0 0,1 77.5,17.5" />
      <line x1="77.5" y1="17.5" x2="77.5" y2="59.5" />
      <path d="M 77.5,59.5 A 7.5,7.5 0.0 0,1 70.0,67.0" />
      <line x1="70.0" y1="67.0" x2="-70.0" y2="67.0" />
      <path d="M -70.0,67.0 A 7.5,7.5 180.0 0,1 -77.5,59.5" />
      <line x1="-77.5" y1="17.5" x2="-77.5" y2="59.5" />
      <path d="M -80.0,17.5 A 10.0,10.0 -90.0 0,1 -70.0,7.5" />
      <path d="M -80.0,59.5 A 10.0,10.0 -90.0 0,0 -70.0,69.5" />
      <line x1="-70.0" y1="7.5" x2="70.0" y2="7.5" />
      <line x1="-70.0" y1="69.5" x2="70.0" y2="69.5" />
      <path d="M 80.0,17.5 A 10.0,10.0 -90.0 0,0 70.0,7.5" />
      <path d="M 80.0,59.5 A 10.0,10.0 -90.0 0,1 70.0,69.5" />
      <line x1="80.0" y1="17.5" x2="80.0" y2="59.5" />
      <circle cx="55.0" cy="38.5" r="13.0" />
      <path d="M -77.5,17.5 A 7.5,7.5 -90.0 0,1 -70.0,10.0" />
      <line x1="-70.0" y1="10.0" x2="70.0" y2="10.0" />
      <path d="M 77.5,17.5 A 7.5,7.5 -90.0 0,0 70.0,10.0" />
      <line x1="77.5" y1="17.5" x2="77.5" y2="59.5" />
      <path d="M 77.5,59.5 A 7.5,7.5 -90.0 0,1 70.0,67.0" />
      <line x1="-70.0" y1="67.0" x2="70.0" y2="67.0" />
      <path d="M -77.5,59.5 A 7.5,7.5 -90.0 0,0 -70.0,67.0" />
      <line x1="-77.5" y1="17.5" x2="-77.5" y2="59.5" />
      <circle cx="55.0" cy="38.5" r="13.0" />
      <circle cx="35.0" cy="38.5" r="6.0" />
      <circle cx="-20.0" cy="-46.5" r="23.0" />
      <circle cx="-20.0" cy="-46.5" r="20.5" />
      <circle cx="-20.0" cy="-46.5" r="19.0" />
      <line x1="-62.5" y1="29.25" x2="2.5" y2="29.25" />
      <line x1="-62.5" y1="47.75" x2="2.5" y2="47.75" />
    </g>
  </g>
</svg><text x="100.66" y="125.45" font-family="IBM Plex Sans, Helvetica, Arial, sans-serif" font-size="2.8" font-weight="600" fill="#EEF5FF" text-anchor="middle">TOP VIEW</text><text x="100.66" y="129.45" font-family="IBM Plex Sans, Helvetica, Arial, sans-serif" font-size="2.2" font-weight="400" fill="#AFC8EC" text-anchor="middle">Scale 1:2</text><svg x="154.75" y="145.45" width="69.67" height="28.18" viewBox="-69.675 -28.175 139.35 56.35" preserveAspectRatio="xMidYMid meet" overflow="visible"><g transform="scale(1,-1)" stroke-linecap="round">
    <g fill="none" stroke="rgb(238,245,255)" stroke-width="0.1800" id="Visible">
      <path d="M 17.5,24.0 L 16.380355,24.0 L 15.274791,24.0 L 14.197209,24.0 L 13.161163,24.0 L 12.179679,24.0 L 11.265102,24.0 L 10.428932,24.0 L 9.681685,24.0 L 9.032758,24.0 L 8.490311,24.0 L 8.061167,24.0 L 7.750721,24.0 L 7.562878,24.0 L 7.5,24.0" />
      <path d="M 59.5,24.0 L 60.619645,24.0 L 61.725209,24.0 L 62.802791,24.0 L 63.838837,24.0 L 64.820321,24.0 L 65.734898,24.0 L 66.571068,24.0 L 67.318315,24.0 L 67.967242,24.0 L 68.509689,24.0 L 68.938833,24.0 L 69.249279,24.0 L 69.437122,24.0 L 69.5,24.0" />
      <line x1="17.5" y1="24.0" x2="59.5" y2="24.0" />
      <path d="M 17.5,6.0 L 16.380355,6.0 L 15.274791,6.0 L 14.197209,6.0 L 13.161163,6.0 L 12.179679,6.0 L 11.265102,6.0 L 10.428932,6.0 L 9.681685,6.0 L 9.032758,6.0 L 8.490311,6.0 L 8.061167,6.0 L 7.750721,6.0 L 7.562878,6.0 L 7.5,6.0" />
      <path d="M 59.5,6.0 L 60.619645,6.0 L 61.725209,6.0 L 62.802791,6.0 L 63.838837,6.0 L 64.820321,6.0 L 65.734898,6.0 L 66.571068,6.0 L 67.318315,6.0 L 67.967242,6.0 L 68.509689,6.0 L 68.938833,6.0 L 69.249279,6.0 L 69.437122,6.0 L 69.5,6.0" />
      <line x1="17.5" y1="6.0" x2="59.5" y2="6.0" />
      <line x1="7.5" y1="6.0" x2="7.5" y2="24.0" />
      <line x1="69.5" y1="6.0" x2="69.5" y2="24.0" />
      <path d="M 38.5,-28.0 L 40.851254,-28.0 L 43.17294,-28.0 L 45.43586,-28.0 L 47.611559,-28.0 L 49.672674,-28.0 L 51.593286,-28.0 L 53.349242,-28.0 L 54.918461,-28.0 L 56.281208,-28.0 L 57.420346,-28.0 L 58.32155,-28.0 L 58.973486,-28.0 L 59.367956,-28.0 L 59.5,-28.0" />
      <path d="M 17.5,-28.0 L 17.632044,-28.0 L 18.026514,-28.0 L 18.67845,-28.0 L 19.579654,-28.0 L 20.718792,-28.0 L 22.081539,-28.0 L 23.650758,-28.0 L 25.406714,-28.0 L 27.327326,-28.0 L 29.388441,-28.0 L 31.56414,-28.0 L 33.82706,-28.0 L 36.148746,-28.0 L 38.5,-28.0" />
      <path d="M 17.5,6.0 L 16.380355,6.0 L 15.274791,6.0 L 14.197209,6.0 L 13.161163,6.0 L 12.179679,6.0 L 11.265102,6.0 L 10.428932,6.0 L 9.681685,6.0 L 9.032758,6.0 L 8.490311,6.0 L 8.061167,6.0 L 7.750721,6.0 L 7.562878,6.0 L 7.5,6.0" />
      <path d="M 59.5,6.0 L 60.619645,6.0 L 61.725209,6.0 L 62.802791,6.0 L 63.838837,6.0 L 64.820321,6.0 L 65.734898,6.0 L 66.571068,6.0 L 67.318315,6.0 L 67.967242,6.0 L 68.509689,6.0 L 68.938833,6.0 L 69.249279,6.0 L 69.437122,6.0 L 69.5,6.0" />
      <line x1="17.5" y1="6.0" x2="59.5" y2="6.0" />
      <path d="M 17.5,-10.0 L 16.380355,-10.0 L 15.274791,-10.0 L 14.197209,-10.0 L 13.161163,-10.0 L 12.179679,-10.0 L 11.265102,-10.0 L 10.428932,-10.0 L 9.681685,-10.0 L 9.032758,-10.0 L 8.490311,-10.0 L 8.061167,-10.0 L 7.750721,-10.0 L 7.562878,-10.0 L 7.5,-10.0" />
      <path d="M 59.5,-10.0 L 60.619645,-10.0 L 61.725209,-10.0 L 62.802791,-10.0 L 63.838837,-10.0 L 64.820321,-10.0 L 65.734898,-10.0 L 66.571068,-10.0 L 67.318315,-10.0 L 67.967242,-10.0 L 68.509689,-10.0 L 68.938833,-10.0 L 69.249279,-10.0 L 69.437122,-10.0 L 69.5,-10.0" />
      <line x1="17.5" y1="-10.0" x2="59.5" y2="-10.0" />
      <line x1="7.5" y1="-10.0" x2="7.5" y2="6.0" />
      <line x1="69.5" y1="-10.0" x2="69.5" y2="6.0" />
      <path d="M 38.5,28.0 L 39.171787,28.0 L 39.835126,28.0 L 40.481674,28.0 L 41.103302,28.0 L 41.692192,28.0 L 42.240939,28.0 L 42.742641,28.0 L 43.190989,28.0 L 43.580345,28.0 L 43.905813,28.0 L 44.1633,28.0 L 44.349567,28.0 L 44.462273,28.0 L 44.5,28.0" />
      <path d="M 32.5,28.0 L 32.537727,28.0 L 32.650433,28.0 L 32.8367,28.0 L 33.094187,28.0 L 33.419655,28.0 L 33.809011,28.0 L 34.257359,28.0 L 34.759061,28.0 L 35.307808,28.0 L 35.896698,28.0 L 36.518326,28.0 L 37.164874,28.0 L 37.828213,28.0 L 38.5,28.0" />
      <path d="M -46.5,-6.0 L -43.924817,-6.0 L -41.382019,-6.0 L -38.903582,-6.0 L -36.520674,-6.0 L -34.263262,-6.0 L -32.159735,-6.0 L -30.236544,-6.0 L -28.517876,-6.0 L -27.025343,-6.0 L -25.777716,-6.0 L -24.790683,-6.0 L -24.076658,-6.0 L -23.644619,-6.0 L -23.5,-6.0" />
      <path d="M -69.5,-6.0 L -69.355381,-6.0 L -68.923342,-6.0 L -68.209317,-6.0 L -67.222284,-6.0 L -65.974657,-6.0 L -64.482124,-6.0 L -62.763456,-6.0 L -60.840265,-6.0 L -58.736738,-6.0 L -56.479326,-6.0 L -54.096418,-6.0 L -51.617981,-6.0 L -49.075183,-6.0 L -46.5,-6.0" />
      <path d="M -46.5,-28.0 L -43.924817,-28.0 L -41.382019,-28.0 L -38.903582,-28.0 L -36.520674,-28.0 L -34.263262,-28.0 L -32.159735,-28.0 L -30.236544,-28.0 L -28.517876,-28.0 L -27.025343,-28.0 L -25.777716,-28.0 L -24.790683,-28.0 L -24.076658,-28.0 L -23.644619,-28.0 L -23.5,-28.0" />
      <path d="M -69.5,-28.0 L -69.355381,-28.0 L -68.923342,-28.0 L -68.209317,-28.0 L -67.222284,-28.0 L -65.974657,-28.0 L -64.482124,-28.0 L -62.763456,-28.0 L -60.840265,-28.0 L -58.736738,-28.0 L -56.479326,-28.0 L -54.096418,-28.0 L -51.617981,-28.0 L -49.075183,-28.0 L -46.5,-28.0" />
      <line x1="17.5" y1="6.0" x2="17.5" y2="24.0" />
      <line x1="59.5" y1="6.0" x2="59.5" y2="24.0" />
      <line x1="17.5" y1="-10.0" x2="17.5" y2="6.0" />
      <line x1="59.5" y1="-10.0" x2="59.5" y2="6.0" />
      <line x1="53.5" y1="-10.0" x2="59.5" y2="-28.0" />
      <line x1="23.5" y1="-10.0" x2="17.5" y2="-28.0" />
      <line x1="44.5" y1="24.0" x2="44.5" y2="28.0" />
      <line x1="32.5" y1="24.0" x2="32.5" y2="28.0" />
      <line x1="-23.5" y1="-28.0" x2="-23.5" y2="-6.0" />
      <line x1="-69.5" y1="-28.0" x2="-69.5" y2="-6.0" />
    </g>
    <g fill="none" stroke="rgb(175,200,236)" stroke-width="0.3500" id="Hidden" stroke-dasharray="4.200 1.050">
      <line x1="17.5" y1="24.0" x2="59.5" y2="24.0" />
      <line x1="17.5" y1="6.0" x2="59.5" y2="6.0" />
      <path d="M 17.5,24.0 L 16.380355,24.0 L 15.274791,24.0 L 14.197209,24.0 L 13.161163,24.0 L 12.179679,24.0 L 11.265102,24.0 L 10.428932,24.0 L 9.681685,24.0 L 9.032758,24.0 L 8.490311,24.0 L 8.061167,24.0 L 7.750721,24.0 L 7.562878,24.0 L 7.5,24.0" />
      <path d="M 59.5,24.0 L 60.619645,24.0 L 61.725209,24.0 L 62.802791,24.0 L 63.838837,24.0 L 64.820321,24.0 L 65.734898,24.0 L 66.571068,24.0 L 67.318315,24.0 L 67.967242,24.0 L 68.509689,24.0 L 68.938833,24.0 L 69.249279,24.0 L 69.437122,24.0 L 69.5,24.0" />
      <line x1="26.5" y1="24.0" x2="50.5" y2="24.0" />
      <line x1="26.5" y1="24.0" x2="50.5" y2="24.0" />
      <path d="M 38.5,24.0 L 39.227769,24.0 L 39.946386,24.0 L 40.646814,24.0 L 41.320244,24.0 L 41.958208,24.0 L 42.552684,24.0 L 43.096194,24.0 L 43.581905,24.0 L 44.003707,24.0 L 44.356298,24.0 L 44.635242,24.0 L 44.837031,24.0 L 44.959129,24.0 L 45.0,24.0" />
      <path d="M 45.0,24.0 L 44.837031,24.0 L 44.356298,24.0 L 43.581905,24.0 L 42.552684,24.0 L 41.320244,24.0 L 39.946386,24.0 L 38.5,24.0 L 37.053614,24.0 L 35.679756,24.0 L 34.447316,24.0 L 33.418095,24.0 L 32.643702,24.0 L 32.162969,24.0 L 32.0,24.0" />
      <path d="M 32.0,24.0 L 32.040871,24.0 L 32.162969,24.0 L 32.364758,24.0 L 32.643702,24.0 L 32.996293,24.0 L 33.418095,24.0 L 33.903806,24.0 L 34.447316,24.0 L 35.041792,24.0 L 35.679756,24.0 L 36.353186,24.0 L 37.053614,24.0 L 37.772231,24.0 L 38.5,24.0" />
      <path d="M 17.5,6.0 L 16.380355,6.0 L 15.274791,6.0 L 14.197209,6.0 L 13.161163,6.0 L 12.179679,6.0 L 11.265102,6.0 L 10.428932,6.0 L 9.681685,6.0 L 9.032758,6.0 L 8.490311,6.0 L 8.061167,6.0 L 7.750721,6.0 L 7.562878,6.0 L 7.5,6.0" />
      <line x1="7.5" y1="6.0" x2="7.5" y2="24.0" />
      <path d="M 59.5,6.0 L 60.619645,6.0 L 61.725209,6.0 L 62.802791,6.0 L 63.838837,6.0 L 64.820321,6.0 L 65.734898,6.0 L 66.571068,6.0 L 67.318315,6.0 L 67.967242,6.0 L 68.509689,6.0 L 68.938833,6.0 L 69.249279,6.0 L 69.437122,6.0 L 69.5,6.0" />
      <line x1="69.5" y1="6.0" x2="69.5" y2="24.0" />
      <path d="M 17.5,6.0 L 16.660266,6.0 L 15.831093,6.0 L 15.022907,6.0 L 14.245872,6.0 L 13.509759,6.0 L 12.823826,6.0 L 12.196699,6.0 L 11.636264,6.0 L 11.149569,6.0 L 10.742733,6.0 L 10.420875,6.0 L 10.188041,6.0 L 10.047158,6.0 L 10.0,6.0" />
      <path d="M 10.0,6.0 L 10.047158,6.0 L 10.188041,6.0 L 10.420875,6.0 L 10.742733,6.0 L 11.149569,6.0 L 11.636264,6.0 L 12.196699,6.0 L 12.823826,6.0 L 13.509759,6.0 L 14.245872,6.0 L 15.022907,6.0 L 15.831093,6.0 L 16.660266,6.0 L 17.5,6.0" />
      <line x1="17.5" y1="6.0" x2="59.5" y2="6.0" />
      <path d="M 59.5,6.0 L 60.339734,6.0 L 61.168907,6.0 L 61.977093,6.0 L 62.754128,6.0 L 63.490241,6.0 L 64.176174,6.0 L 64.803301,6.0 L 65.363736,6.0 L 65.850431,6.0 L 66.257267,6.0 L 66.579125,6.0 L 66.811959,6.0 L 66.952842,6.0 L 67.0,6.0" />
      <path d="M 67.0,6.0 L 66.952842,6.0 L 66.811959,6.0 L 66.579125,6.0 L 66.257267,6.0 L 65.850431,6.0 L 65.363736,6.0 L 64.803301,6.0 L 64.176174,6.0 L 63.490241,6.0 L 62.754128,6.0 L 61.977093,6.0 L 61.168907,6.0 L 60.339734,6.0 L 59.5,6.0" />
      <line x1="17.5" y1="6.0" x2="59.5" y2="6.0" />
      <line x1="26.5" y1="21.505" x2="26.5" y2="24.0" />
      <line x1="26.5" y1="21.505" x2="26.5" y2="24.0" />
      <line x1="50.5" y1="21.505" x2="50.5" y2="24.0" />
      <line x1="26.5" y1="21.505" x2="50.5" y2="21.505" />
      <line x1="50.5" y1="21.505" x2="50.5" y2="24.0" />
      <line x1="26.5" y1="21.505" x2="50.5" y2="21.505" />
      <path d="M 38.5,21.505 L 39.227769,21.505 L 39.946386,21.505 L 40.646814,21.505 L 41.320244,21.505 L 41.958208,21.505 L 42.552684,21.505 L 43.096194,21.505 L 43.581905,21.505 L 44.003707,21.505 L 44.356298,21.505 L 44.635242,21.505 L 44.837031,21.505 L 44.959129,21.505 L 45.0,21.505" />
      <path d="M 45.0,21.505 L 44.837031,21.505 L 44.356298,21.505 L 43.581905,21.505 L 42.552684,21.505 L 41.320244,21.505 L 39.946386,21.505 L 38.5,21.505 L 37.053614,21.505 L 35.679756,21.505 L 34.447316,21.505 L 33.418095,21.505 L 32.643702,21.505 L 32.162969,21.505 L 32.0,21.505" />
      <path d="M 32.0,21.505 L 32.040871,21.505 L 32.162969,21.505 L 32.364758,21.505 L 32.643702,21.505 L 32.996293,21.505 L 33.418095,21.505 L 33.903806,21.505 L 34.447316,21.505 L 35.041792,21.505 L 35.679756,21.505 L 36.353186,21.505 L 37.053614,21.505 L 37.772231,21.505 L 38.5,21.505" />
      <path d="M 17.5,21.505 L 16.660266,21.505 L 15.831093,21.505 L 15.022907,21.505 L 14.245872,21.505 L 13.509759,21.505 L 12.823826,21.505 L 12.196699,21.505 L 11.636264,21.505 L 11.149569,21.505 L 10.742733,21.505 L 10.420875,21.505 L 10.188041,21.505 L 10.047158,21.505 L 10.0,21.505" />
      <line x1="10.0" y1="6.0" x2="10.0" y2="21.505" />
      <line x1="10.0" y1="6.0" x2="10.0" y2="21.505" />
      <path d="M 17.5,21.505 L 16.660266,21.505 L 15.831093,21.505 L 15.022907,21.505 L 14.245872,21.505 L 13.509759,21.505 L 12.823826,21.505 L 12.196699,21.505 L 11.636264,21.505 L 11.149569,21.505 L 10.742733,21.505 L 10.420875,21.505 L 10.188041,21.505 L 10.047158,21.505 L 10.0,21.505" />
      <line x1="17.5" y1="21.505" x2="59.5" y2="21.505" />
      <path d="M 59.5,21.505 L 60.339734,21.505 L 61.168907,21.505 L 61.977093,21.505 L 62.754128,21.505 L 63.490241,21.505 L 64.176174,21.505 L 64.803301,21.505 L 65.363736,21.505 L 65.850431,21.505 L 66.257267,21.505 L 66.579125,21.505 L 66.811959,21.505 L 66.952842,21.505 L 67.0,21.505" />
      <line x1="67.0" y1="6.0" x2="67.0" y2="21.505" />
      <line x1="67.0" y1="6.0" x2="67.0" y2="21.505" />
      <path d="M 59.5,21.505 L 60.339734,21.505 L 61.168907,21.505 L 61.977093,21.505 L 62.754128,21.505 L 63.490241,21.505 L 64.176174,21.505 L 64.803301,21.505 L 65.363736,21.505 L 65.850431,21.505 L 66.257267,21.505 L 66.579125,21.505 L 66.811959,21.505 L 66.952842,21.505 L 67.0,21.505" />
      <line x1="17.5" y1="21.505" x2="59.5" y2="21.505" />
      <line x1="25.5" y1="12.25" x2="25.5" y2="21.75" />
      <line x1="25.5" y1="21.75" x2="51.5" y2="21.75" />
      <line x1="51.5" y1="12.25" x2="51.5" y2="21.75" />
      <line x1="25.5" y1="12.25" x2="51.5" y2="12.25" />
      <line x1="25.5" y1="12.25" x2="25.5" y2="21.75" />
      <line x1="25.5" y1="21.75" x2="51.5" y2="21.75" />
      <line x1="51.5" y1="12.25" x2="51.5" y2="21.75" />
      <line x1="25.5" y1="12.25" x2="51.5" y2="12.25" />
      <path d="M 38.5,-4.0 L 39.843574,-4.0 L 41.170251,-4.0 L 42.463349,-4.0 L 43.706605,-4.0 L 44.884385,-4.0 L 45.981878,-4.0 L 46.985281,-4.0 L 47.881978,-4.0 L 48.66069,-4.0 L 49.311626,-4.0 L 49.8266,-4.0 L 50.199135,-4.0 L 50.424547,-4.0 L 50.5,-4.0" />
      <path d="M 50.5,-4.0 L 50.199135,-4.0 L 49.311626,-4.0 L 47.881978,-4.0 L 45.981878,-4.0 L 43.706605,-4.0 L 41.170251,-4.0 L 38.5,-4.0 L 35.829749,-4.0 L 33.293395,-4.0 L 31.018122,-4.0 L 29.118022,-4.0 L 27.688374,-4.0 L 26.800865,-4.0 L 26.5,-4.0" />
      <path d="M 26.5,-4.0 L 26.575453,-4.0 L 26.800865,-4.0 L 27.1734,-4.0 L 27.688374,-4.0 L 28.33931,-4.0 L 29.118022,-4.0 L 30.014719,-4.0 L 31.018122,-4.0 L 32.115615,-4.0 L 33.293395,-4.0 L 34.536651,-4.0 L 35.829749,-4.0 L 37.156426,-4.0 L 38.5,-4.0" />
      <path d="M 38.5,-6.0 L 39.843574,-6.0 L 41.170251,-6.0 L 42.463349,-6.0 L 43.706605,-6.0 L 44.884385,-6.0 L 45.981878,-6.0 L 46.985281,-6.0 L 47.881978,-6.0 L 48.66069,-6.0 L 49.311626,-6.0 L 49.8266,-6.0 L 50.199135,-6.0 L 50.424547,-6.0 L 50.5,-6.0" />
      <path d="M 50.5,-6.0 L 50.199135,-6.0 L 49.311626,-6.0 L 47.881978,-6.0 L 45.981878,-6.0 L 43.706605,-6.0 L 41.170251,-6.0 L 38.5,-6.0 L 35.829749,-6.0 L 33.293395,-6.0 L 31.018122,-6.0 L 29.118022,-6.0 L 27.688374,-6.0 L 26.800865,-6.0 L 26.5,-6.0" />
      <path d="M 26.5,-6.0 L 26.575453,-6.0 L 26.800865,-6.0 L 27.1734,-6.0 L 27.688374,-6.0 L 28.33931,-6.0 L 29.118022,-6.0 L 30.014719,-6.0 L 31.018122,-6.0 L 32.115615,-6.0 L 33.293395,-6.0 L 34.536651,-6.0 L 35.829749,-6.0 L 37.156426,-6.0 L 38.5,-6.0" />
      <path d="M 38.5,-4.0 L 39.283751,-4.0 L 40.057647,-4.0 L 40.811953,-4.0 L 41.537186,-4.0 L 42.224225,-4.0 L 42.864429,-4.0 L 43.449747,-4.0 L 43.97282,-4.0 L 44.427069,-4.0 L 44.806782,-4.0 L 45.107183,-4.0 L 45.324495,-4.0 L 45.455985,-4.0 L 45.5,-4.0" />
      <path d="M 45.5,-4.0 L 45.324495,-4.0 L 44.806782,-4.0 L 43.97282,-4.0 L 42.864429,-4.0 L 41.537186,-4.0 L 40.057647,-4.0 L 38.5,-4.0 L 36.942353,-4.0 L 35.462814,-4.0 L 34.135571,-4.0 L 33.02718,-4.0 L 32.193218,-4.0 L 31.675505,-4.0 L 31.5,-4.0" />
      <path d="M 31.5,-4.0 L 31.544015,-4.0 L 31.675505,-4.0 L 31.892817,-4.0 L 32.193218,-4.0 L 32.572931,-4.0 L 33.02718,-4.0 L 33.550253,-4.0 L 34.135571,-4.0 L 34.775775,-4.0 L 35.462814,-4.0 L 36.188047,-4.0 L 36.942353,-4.0 L 37.716249,-4.0 L 38.5,-4.0" />
      <path d="M 38.5,-6.0 L 39.283751,-6.0 L 40.057647,-6.0 L 40.811953,-6.0 L 41.537186,-6.0 L 42.224225,-6.0 L 42.864429,-6.0 L 43.449747,-6.0 L 43.97282,-6.0 L 44.427069,-6.0 L 44.806782,-6.0 L 45.107183,-6.0 L 45.324495,-6.0 L 45.455985,-6.0 L 45.5,-6.0" />
      <path d="M 45.5,-6.0 L 45.324495,-6.0 L 44.806782,-6.0 L 43.97282,-6.0 L 42.864429,-6.0 L 41.537186,-6.0 L 40.057647,-6.0 L 38.5,-6.0 L 36.942353,-6.0 L 35.462814,-6.0 L 34.135571,-6.0 L 33.02718,-6.0 L 32.193218,-6.0 L 31.675505,-6.0 L 31.5,-6.0" />
      <path d="M 31.5,-6.0 L 31.544015,-6.0 L 31.675505,-6.0 L 31.892817,-6.0 L 32.193218,-6.0 L 32.572931,-6.0 L 33.02718,-6.0 L 33.550253,-6.0 L 34.135571,-6.0 L 34.775775,-6.0 L 35.462814,-6.0 L 36.188047,-6.0 L 36.942353,-6.0 L 37.716249,-6.0 L 38.5,-6.0" />
      <path d="M 38.5,-2.0 L 38.835893,-2.0 L 39.167563,-2.0 L 39.490837,-2.0 L 39.801651,-2.0 L 40.096096,-2.0 L 40.370469,-2.0 L 40.62132,-2.0 L 40.845494,-2.0 L 41.040173,-2.0 L 41.202907,-2.0 L 41.33165,-2.0 L 41.424784,-2.0 L 41.481137,-2.0 L 41.5,-2.0" />
      <path d="M 41.5,-2.0 L 41.424784,-2.0 L 41.202907,-2.0 L 40.845494,-2.0 L 40.370469,-2.0 L 39.801651,-2.0 L 39.167563,-2.0 L 38.5,-2.0 L 37.832437,-2.0 L 37.198349,-2.0 L 36.629531,-2.0 L 36.154506,-2.0 L 35.797093,-2.0 L 35.575216,-2.0 L 35.5,-2.0" />
      <path d="M 35.5,-2.0 Q 35.509432,-2.0 35.518863,-2.0 Q 35.54704,-2.0 35.575216,-2.0 Q 35.621783,-2.0 35.66835,-2.0 Q 35.732722,-2.0 35.797093,-2.0 Q 35.87846,-2.0 35.959827,-2.0 Q 36.057166,-2.0 36.154506,-2.0 Q 36.266593,-2.0 36.37868,-2.0 Q 36.504105,-2.0 36.629531,-2.0 Q 36.766717,-2.0 36.903904,-2.0 Q 37.051126,-2.0 37.198349,-2.0 Q 37.353756,-2.0 37.509163,-2.0 Q 37.6708,-2.0 37.832437,-2.0 Q 38.162922,-2.0 38.5,-2.0" />
      <path d="M 38.5,-6.0 L 38.835893,-6.0 L 39.167563,-6.0 L 39.490837,-6.0 L 39.801651,-6.0 L 40.096096,-6.0 L 40.370469,-6.0 L 40.62132,-6.0 L 40.845494,-6.0 L 41.040173,-6.0 L 41.202907,-6.0 L 41.33165,-6.0 L 41.424784,-6.0 L 41.481137,-6.0 L 41.5,-6.0" />
      <path d="M 41.5,-6.0 L 41.424784,-6.0 L 41.202907,-6.0 L 40.845494,-6.0 L 40.370469,-6.0 L 39.801651,-6.0 L 39.167563,-6.0 L 38.5,-6.0 L 37.832437,-6.0 L 37.198349,-6.0 L 36.629531,-6.0 L 36.154506,-6.0 L 35.797093,-6.0 L 35.575216,-6.0 L 35.5,-6.0" />
      <path d="M 35.5,-6.0 Q 35.509432,-6.0 35.518863,-6.0 Q 35.54704,-6.0 35.575216,-6.0 Q 35.621783,-6.0 35.66835,-6.0 Q 35.732722,-6.0 35.797093,-6.0 Q 35.87846,-6.0 35.959827,-6.0 Q 36.057166,-6.0 36.154506,-6.0 Q 36.266593,-6.0 36.37868,-6.0 Q 36.504105,-6.0 36.629531,-6.0 Q 36.766717,-6.0 36.903904,-6.0 Q 37.051126,-6.0 37.198349,-6.0 Q 37.353756,-6.0 37.509163,-6.0 Q 37.6708,-6.0 37.832437,-6.0 Q 38.162922,-6.0 38.5,-6.0" />
      <line x1="24.5" y1="-0.3" x2="24.5" y2="1.3" />
      <line x1="24.5" y1="1.3" x2="52.5" y2="1.3" />
      <line x1="52.5" y1="-0.3" x2="52.5" y2="1.3" />
      <line x1="24.5" y1="-0.3" x2="52.5" y2="-0.3" />
      <line x1="24.5" y1="-0.3" x2="24.5" y2="1.3" />
      <line x1="24.5" y1="1.3" x2="52.5" y2="1.3" />
      <line x1="52.5" y1="-0.3" x2="52.5" y2="1.3" />
      <line x1="24.5" y1="-0.3" x2="52.5" y2="-0.3" />
      <path d="M 38.5,-8.0 L 39.899556,-8.0 L 41.281512,-8.0 L 42.628488,-8.0 L 43.923547,-8.0 L 45.150401,-8.0 L 46.293623,-8.0 L 47.338835,-8.0 L 48.272894,-8.0 L 49.084052,-8.0 L 49.762111,-8.0 L 50.298542,-8.0 L 50.686599,-8.0 L 50.921403,-8.0 L 51.0,-8.0" />
      <path d="M 51.0,-8.0 L 50.686599,-8.0 L 49.762111,-8.0 L 48.272894,-8.0 L 46.293623,-8.0 L 43.923547,-8.0 L 41.281512,-8.0 L 38.5,-8.0 L 35.718488,-8.0 L 33.076453,-8.0 L 30.706377,-8.0 L 28.727106,-8.0 L 27.237889,-8.0 L 26.313401,-8.0 L 26.0,-8.0" />
      <path d="M 26.0,-8.0 L 26.078597,-8.0 L 26.313401,-8.0 L 26.701458,-8.0 L 27.237889,-8.0 L 27.915948,-8.0 L 28.727106,-8.0 L 29.661165,-8.0 L 30.706377,-8.0 L 31.849599,-8.0 L 33.076453,-8.0 L 34.371512,-8.0 L 35.718488,-8.0 L 37.100444,-8.0 L 38.5,-8.0" />
      <path d="M 38.5,-10.0 L 39.899556,-10.0 L 41.281512,-10.0 L 42.628488,-10.0 L 43.923547,-10.0 L 45.150401,-10.0 L 46.293623,-10.0 L 47.338835,-10.0 L 48.272894,-10.0 L 49.084052,-10.0 L 49.762111,-10.0 L 50.298542,-10.0 L 50.686599,-10.0 L 50.921403,-10.0 L 51.0,-10.0" />
      <path d="M 51.0,-10.0 L 50.686599,-10.0 L 49.762111,-10.0 L 48.272894,-10.0 L 46.293623,-10.0 L 43.923547,-10.0 L 41.281512,-10.0 L 38.5,-10.0 L 35.718488,-10.0 L 33.076453,-10.0 L 30.706377,-10.0 L 28.727106,-10.0 L 27.237889,-10.0 L 26.313401,-10.0 L 26.0,-10.0" />
      <path d="M 26.0,-10.0 L 26.078597,-10.0 L 26.313401,-10.0 L 26.701458,-10.0 L 27.237889,-10.0 L 27.915948,-10.0 L 28.727106,-10.0 L 29.661165,-10.0 L 30.706377,-10.0 L 31.849599,-10.0 L 33.076453,-10.0 L 34.371512,-10.0 L 35.718488,-10.0 L 37.100444,-10.0 L 38.5,-10.0" />
      <path d="M 38.5,-10.0 L 40.179467,-10.0 L 41.837814,-10.0 L 43.454186,-10.0 L 45.008256,-10.0 L 46.480481,-10.0 L 47.852347,-10.0 L 49.106602,-10.0 L 50.227472,-10.0 L 51.200863,-10.0 L 52.014533,-10.0 L 52.65825,-10.0 L 53.123919,-10.0 L 53.405683,-10.0 L 53.5,-10.0" />
      <path d="M 53.5,-10.0 L 53.123919,-10.0 L 52.014533,-10.0 L 50.227472,-10.0 L 47.852347,-10.0 L 45.008256,-10.0 L 41.837814,-10.0 L 38.5,-10.0 L 35.162186,-10.0 L 31.991744,-10.0 L 29.147653,-10.0 L 26.772528,-10.0 L 24.985467,-10.0 L 23.876081,-10.0 L 23.5,-10.0" />
      <path d="M 23.5,-10.0 L 23.594317,-10.0 L 23.876081,-10.0 L 24.34175,-10.0 L 24.985467,-10.0 L 25.799137,-10.0 L 26.772528,-10.0 L 27.893398,-10.0 L 29.147653,-10.0 L 30.519519,-10.0 L 31.991744,-10.0 L 33.545814,-10.0 L 35.162186,-10.0 L 36.820533,-10.0 L 38.5,-10.0" />
      <path d="M 59.5,-28.0 L 58.973486,-28.0 L 57.420346,-28.0 L 54.918461,-28.0 L 51.593286,-28.0 L 47.611559,-28.0 L 43.17294,-28.0 L 38.5,-28.0 L 33.82706,-28.0 L 29.388441,-28.0 L 25.406714,-28.0 L 22.081539,-28.0 L 19.579654,-28.0 L 18.026514,-28.0 L 17.5,-28.0" />
      <path d="M 38.5,-10.0 L 39.899898,-10.0 L 41.282191,-10.0 L 42.629496,-10.0 L 43.924871,-10.0 L 45.152025,-10.0 L 46.295526,-10.0 L 47.340993,-10.0 L 48.27528,-10.0 L 49.086637,-10.0 L 49.764861,-10.0 L 50.301423,-10.0 L 50.689575,-10.0 L 50.924436,-10.0 L 51.003052,-10.0" />
      <path d="M 51.003052,-10.0 L 50.689575,-10.0 L 49.764861,-10.0 L 48.27528,-10.0 L 46.295526,-10.0 L 43.924871,-10.0 L 41.282191,-10.0 L 38.5,-10.0 L 35.717809,-10.0 L 33.075129,-10.0 L 30.704474,-10.0 L 28.72472,-10.0 L 27.235139,-10.0 L 26.310425,-10.0 L 25.996948,-10.0" />
      <path d="M 25.996948,-10.0 L 26.075564,-10.0 L 26.310425,-10.0 L 26.698577,-10.0 L 27.235139,-10.0 L 27.913363,-10.0 L 28.72472,-10.0 L 29.659007,-10.0 L 30.704474,-10.0 L 31.847975,-10.0 L 33.075129,-10.0 L 34.370504,-10.0 L 35.717809,-10.0 L 37.100102,-10.0 L 38.5,-10.0" />
      <path d="M 38.5,-28.0 L 40.515019,-28.0 L 42.504698,-28.0 L 44.444015,-28.0 L 46.308583,-28.0 L 48.074954,-28.0 L 49.720913,-28.0 L 51.225764,-28.0 L 52.57058,-28.0 L 53.738451,-28.0 L 54.71469,-28.0 L 55.487019,-28.0 L 56.045727,-28.0 L 56.383787,-28.0 L 56.496948,-28.0" />
      <path d="M 56.496948,-28.0 L 56.045727,-28.0 L 54.71469,-28.0 L 52.57058,-28.0 L 49.720913,-28.0 L 46.308583,-28.0 L 42.504698,-28.0 L 38.5,-28.0 L 34.495302,-28.0 L 30.691417,-28.0 L 27.279087,-28.0 L 24.42942,-28.0 L 22.28531,-28.0 L 20.954273,-28.0 L 20.503052,-28.0" />
      <path d="M 20.503052,-28.0 L 20.616213,-28.0 L 20.954273,-28.0 L 21.512981,-28.0 L 22.28531,-28.0 L 23.261549,-28.0 L 24.42942,-28.0 L 25.774236,-28.0 L 27.279087,-28.0 L 28.925046,-28.0 L 30.691417,-28.0 L 32.555985,-28.0 L 34.495302,-28.0 L 36.484981,-28.0 L 38.5,-28.0" />
      <circle cx="38.5" cy="2.0" r="9.25" />
      <circle cx="38.5" cy="2.0" r="9.25" />
      <line x1="29.5" y1="-6.5" x2="29.5" y2="-4.5" />
      <line x1="29.5" y1="-4.5" x2="47.5" y2="-4.5" />
      <line x1="47.5" y1="-6.5" x2="47.5" y2="-4.5" />
      <line x1="29.5" y1="-6.5" x2="47.5" y2="-6.5" />
      <line x1="29.5" y1="-6.5" x2="29.5" y2="-4.5" />
      <line x1="29.5" y1="-4.5" x2="47.5" y2="-4.5" />
      <line x1="47.5" y1="-6.5" x2="47.5" y2="-4.5" />
      <line x1="29.5" y1="-6.5" x2="47.5" y2="-6.5" />
      <line x1="17.5" y1="6.0" x2="59.5" y2="6.0" />
      <line x1="17.5" y1="-10.0" x2="59.5" y2="-10.0" />
      <path d="M 17.5,6.0 L 16.380355,6.0 L 15.274791,6.0 L 14.197209,6.0 L 13.161163,6.0 L 12.179679,6.0 L 11.265102,6.0 L 10.428932,6.0 L 9.681685,6.0 L 9.032758,6.0 L 8.490311,6.0 L 8.061167,6.0 L 7.750721,6.0 L 7.562878,6.0 L 7.5,6.0" />
      <path d="M 59.5,6.0 L 60.619645,6.0 L 61.725209,6.0 L 62.802791,6.0 L 63.838837,6.0 L 64.820321,6.0 L 65.734898,6.0 L 66.571068,6.0 L 67.318315,6.0 L 67.967242,6.0 L 68.509689,6.0 L 68.938833,6.0 L 69.249279,6.0 L 69.437122,6.0 L 69.5,6.0" />
      <path d="M 17.5,6.0 L 16.660266,6.0 L 15.831093,6.0 L 15.022907,6.0 L 14.245872,6.0 L 13.509759,6.0 L 12.823826,6.0 L 12.196699,6.0 L 11.636264,6.0 L 11.149569,6.0 L 10.742733,6.0 L 10.420875,6.0 L 10.188041,6.0 L 10.047158,6.0 L 10.0,6.0" />
      <path d="M 10.0,6.0 L 10.047158,6.0 L 10.188041,6.0 L 10.420875,6.0 L 10.742733,6.0 L 11.149569,6.0 L 11.636264,6.0 L 12.196699,6.0 L 12.823826,6.0 L 13.509759,6.0 L 14.245872,6.0 L 15.022907,6.0 L 15.831093,6.0 L 16.660266,6.0 L 17.5,6.0" />
      <line x1="17.5" y1="6.0" x2="59.5" y2="6.0" />
      <path d="M 59.5,6.0 L 60.339734,6.0 L 61.168907,6.0 L 61.977093,6.0 L 62.754128,6.0 L 63.490241,6.0 L 64.176174,6.0 L 64.803301,6.0 L 65.363736,6.0 L 65.850431,6.0 L 66.257267,6.0 L 66.579125,6.0 L 66.811959,6.0 L 66.952842,6.0 L 67.0,6.0" />
      <path d="M 67.0,6.0 L 66.952842,6.0 L 66.811959,6.0 L 66.579125,6.0 L 66.257267,6.0 L 65.850431,6.0 L 65.363736,6.0 L 64.803301,6.0 L 64.176174,6.0 L 63.490241,6.0 L 62.754128,6.0 L 61.977093,6.0 L 61.168907,6.0 L 60.339734,6.0 L 59.5,6.0" />
      <line x1="17.5" y1="6.0" x2="59.5" y2="6.0" />
      <path d="M 17.5,-10.0 L 16.380355,-10.0 L 15.274791,-10.0 L 14.197209,-10.0 L 13.161163,-10.0 L 12.179679,-10.0 L 11.265102,-10.0 L 10.428932,-10.0 L 9.681685,-10.0 L 9.032758,-10.0 L 8.490311,-10.0 L 8.061167,-10.0 L 7.750721,-10.0 L 7.562878,-10.0 L 7.5,-10.0" />
      <line x1="7.5" y1="-10.0" x2="7.5" y2="6.0" />
      <path d="M 59.5,-10.0 L 60.619645,-10.0 L 61.725209,-10.0 L 62.802791,-10.0 L 63.838837,-10.0 L 64.820321,-10.0 L 65.734898,-10.0 L 66.571068,-10.0 L 67.318315,-10.0 L 67.967242,-10.0 L 68.509689,-10.0 L 68.938833,-10.0 L 69.249279,-10.0 L 69.437122,-10.0 L 69.5,-10.0" />
      <line x1="69.5" y1="-10.0" x2="69.5" y2="6.0" />
      <path d="M 38.5,-10.0 L 39.955538,-10.0 L 41.392772,-10.0 L 42.793628,-10.0 L 44.140489,-10.0 L 45.416417,-10.0 L 46.605367,-10.0 L 47.692388,-10.0 L 48.663809,-10.0 L 49.507415,-10.0 L 50.212595,-10.0 L 50.770483,-10.0 L 51.174063,-10.0 L 51.418259,-10.0 L 51.5,-10.0" />
      <path d="M 51.5,-10.0 L 51.174063,-10.0 L 50.212595,-10.0 L 48.663809,-10.0 L 46.605367,-10.0 L 44.140489,-10.0 L 41.392772,-10.0 L 38.5,-10.0 L 35.607228,-10.0 L 32.859511,-10.0 L 30.394633,-10.0 L 28.336191,-10.0 L 26.787405,-10.0 L 25.825937,-10.0 L 25.5,-10.0" />
      <path d="M 25.5,-10.0 L 25.581741,-10.0 L 25.825937,-10.0 L 26.229517,-10.0 L 26.787405,-10.0 L 27.492585,-10.0 L 28.336191,-10.0 L 29.307612,-10.0 L 30.394633,-10.0 L 31.583583,-10.0 L 32.859511,-10.0 L 34.206372,-10.0 L 35.607228,-10.0 L 37.044462,-10.0 L 38.5,-10.0" />
      <line x1="10.0" y1="-7.505" x2="10.0" y2="6.0" />
      <path d="M 17.5,-7.505 L 16.660266,-7.505 L 15.831093,-7.505 L 15.022907,-7.505 L 14.245872,-7.505 L 13.509759,-7.505 L 12.823826,-7.505 L 12.196699,-7.505 L 11.636264,-7.505 L 11.149569,-7.505 L 10.742733,-7.505 L 10.420875,-7.505 L 10.188041,-7.505 L 10.047158,-7.505 L 10.0,-7.505" />
      <line x1="10.0" y1="-7.505" x2="10.0" y2="6.0" />
      <path d="M 17.5,-7.505 L 16.660266,-7.505 L 15.831093,-7.505 L 15.022907,-7.505 L 14.245872,-7.505 L 13.509759,-7.505 L 12.823826,-7.505 L 12.196699,-7.505 L 11.636264,-7.505 L 11.149569,-7.505 L 10.742733,-7.505 L 10.420875,-7.505 L 10.188041,-7.505 L 10.047158,-7.505 L 10.0,-7.505" />
      <line x1="17.5" y1="-7.505" x2="59.5" y2="-7.505" />
      <line x1="67.0" y1="-7.505" x2="67.0" y2="6.0" />
      <path d="M 59.5,-7.505 L 60.339734,-7.505 L 61.168907,-7.505 L 61.977093,-7.505 L 62.754128,-7.505 L 63.490241,-7.505 L 64.176174,-7.505 L 64.803301,-7.505 L 65.363736,-7.505 L 65.850431,-7.505 L 66.257267,-7.505 L 66.579125,-7.505 L 66.811959,-7.505 L 66.952842,-7.505 L 67.0,-7.505" />
      <line x1="67.0" y1="-7.505" x2="67.0" y2="6.0" />
      <path d="M 59.5,-7.505 L 60.339734,-7.505 L 61.168907,-7.505 L 61.977093,-7.505 L 62.754128,-7.505 L 63.490241,-7.505 L 64.176174,-7.505 L 64.803301,-7.505 L 65.363736,-7.505 L 65.850431,-7.505 L 66.257267,-7.505 L 66.579125,-7.505 L 66.811959,-7.505 L 66.952842,-7.505 L 67.0,-7.505" />
      <line x1="17.5" y1="-7.505" x2="59.5" y2="-7.505" />
      <path d="M 38.5,-7.505 L 39.955538,-7.505 L 41.392772,-7.505 L 42.793628,-7.505 L 44.140489,-7.505 L 45.416417,-7.505 L 46.605367,-7.505 L 47.692388,-7.505 L 48.663809,-7.505 L 49.507415,-7.505 L 50.212595,-7.505 L 50.770483,-7.505 L 51.174063,-7.505 L 51.418259,-7.505 L 51.5,-7.505" />
      <path d="M 51.5,-7.505 L 51.174063,-7.505 L 50.212595,-7.505 L 48.663809,-7.505 L 46.605367,-7.505 L 44.140489,-7.505 L 41.392772,-7.505 L 38.5,-7.505 L 35.607228,-7.505 L 32.859511,-7.505 L 30.394633,-7.505 L 28.336191,-7.505 L 26.787405,-7.505 L 25.825937,-7.505 L 25.5,-7.505" />
      <path d="M 25.5,-7.505 L 25.581741,-7.505 L 25.825937,-7.505 L 26.229517,-7.505 L 26.787405,-7.505 L 27.492585,-7.505 L 28.336191,-7.505 L 29.307612,-7.505 L 30.394633,-7.505 L 31.583583,-7.505 L 32.859511,-7.505 L 34.206372,-7.505 L 35.607228,-7.505 L 37.044462,-7.505 L 38.5,-7.505" />
      <path d="M 44.5,28.0 L 44.349567,28.0 L 43.905813,28.0 L 43.190989,28.0 L 42.240939,28.0 L 41.103302,28.0 L 39.835126,28.0 L 38.5,28.0 L 37.164874,28.0 L 35.896698,28.0 L 34.759061,28.0 L 33.809011,28.0 L 33.094187,28.0 L 32.650433,28.0 L 32.5,28.0" />
      <path d="M 38.5,23.0 L 39.171787,23.0 L 39.835126,23.0 L 40.481674,23.0 L 41.103302,23.0 L 41.692192,23.0 L 42.240939,23.0 L 42.742641,23.0 L 43.190989,23.0 L 43.580345,23.0 L 43.905813,23.0 L 44.1633,23.0 L 44.349567,23.0 L 44.462273,23.0 L 44.5,23.0" />
      <path d="M 44.5,23.0 L 44.349567,23.0 L 43.905813,23.0 L 43.190989,23.0 L 42.240939,23.0 L 41.103302,23.0 L 39.835126,23.0 L 38.5,23.0 L 37.164874,23.0 L 35.896698,23.0 L 34.759061,23.0 L 33.809011,23.0 L 33.094187,23.0 L 32.650433,23.0 L 32.5,23.0" />
      <path d="M 32.5,23.0 L 32.537727,23.0 L 32.650433,23.0 L 32.8367,23.0 L 33.094187,23.0 L 33.419655,23.0 L 33.809011,23.0 L 34.257359,23.0 L 34.759061,23.0 L 35.307808,23.0 L 35.896698,23.0 L 36.518326,23.0 L 37.164874,23.0 L 37.828213,23.0 L 38.5,23.0" />
      <path d="M -23.5,-6.0 L -24.076658,-6.0 L -25.777716,-6.0 L -28.517876,-6.0 L -32.159735,-6.0 L -36.520674,-6.0 L -41.382019,-6.0 L -46.5,-6.0 L -51.617981,-6.0 L -56.479326,-6.0 L -60.840265,-6.0 L -64.482124,-6.0 L -67.222284,-6.0 L -68.923342,-6.0 L -69.5,-6.0" />
      <path d="M -23.5,-28.0 L -24.076658,-28.0 L -25.777716,-28.0 L -28.517876,-28.0 L -32.159735,-28.0 L -36.520674,-28.0 L -41.382019,-28.0 L -46.5,-28.0 L -51.617981,-28.0 L -56.479326,-28.0 L -60.840265,-28.0 L -64.482124,-28.0 L -67.222284,-28.0 L -68.923342,-28.0 L -69.5,-28.0" />
      <path d="M -46.5,-6.0 L -44.204728,-6.0 L -41.938321,-6.0 L -39.729279,-6.0 L -37.605383,-6.0 L -35.593342,-6.0 L -33.718459,-6.0 L -32.004311,-6.0 L -30.472455,-6.0 L -29.142154,-6.0 L -28.030138,-6.0 L -27.150392,-6.0 L -26.513978,-6.0 L -26.1289,-6.0 L -26.0,-6.0" />
      <path d="M -26.0,-6.0 L -26.513978,-6.0 L -28.030138,-6.0 L -30.472455,-6.0 L -33.718459,-6.0 L -37.605383,-6.0 L -41.938321,-6.0 L -46.5,-6.0 L -51.061679,-6.0 L -55.394617,-6.0 L -59.281541,-6.0 L -62.527545,-6.0 L -64.969862,-6.0 L -66.486022,-6.0 L -67.0,-6.0" />
      <path d="M -67.0,-6.0 L -66.8711,-6.0 L -66.486022,-6.0 L -65.849608,-6.0 L -64.969862,-6.0 L -63.857846,-6.0 L -62.527545,-6.0 L -60.995689,-6.0 L -59.281541,-6.0 L -57.406658,-6.0 L -55.394617,-6.0 L -53.270721,-6.0 L -51.061679,-6.0 L -48.795272,-6.0 L -46.5,-6.0" />
      <path d="M -46.5,-26.0 L -44.204728,-26.0 L -41.938321,-26.0 L -39.729279,-26.0 L -37.605383,-26.0 L -35.593342,-26.0 L -33.718459,-26.0 L -32.004311,-26.0 L -30.472455,-26.0 L -29.142154,-26.0 L -28.030138,-26.0 L -27.150392,-26.0 L -26.513978,-26.0 L -26.1289,-26.0 L -26.0,-26.0" />
      <path d="M -26.0,-26.0 L -26.513978,-26.0 L -28.030138,-26.0 L -30.472455,-26.0 L -33.718459,-26.0 L -37.605383,-26.0 L -41.938321,-26.0 L -46.5,-26.0 L -51.061679,-26.0 L -55.394617,-26.0 L -59.281541,-26.0 L -62.527545,-26.0 L -64.969862,-26.0 L -66.486022,-26.0 L -67.0,-26.0" />
      <path d="M -67.0,-26.0 L -66.8711,-26.0 L -66.486022,-26.0 L -65.849608,-26.0 L -64.969862,-26.0 L -63.857846,-26.0 L -62.527545,-26.0 L -60.995689,-26.0 L -59.281541,-26.0 L -57.406658,-26.0 L -55.394617,-26.0 L -53.270721,-26.0 L -51.061679,-26.0 L -48.795272,-26.0 L -46.5,-26.0" />
      <path d="M -46.5,-24.0 L -44.372675,-24.0 L -42.272102,-24.0 L -40.224698,-24.0 L -38.256209,-24.0 L -36.391391,-24.0 L -34.653694,-24.0 L -33.064971,-24.0 L -31.645202,-24.0 L -30.41224,-24.0 L -29.381592,-24.0 L -28.566217,-24.0 L -27.97637,-24.0 L -27.619468,-24.0 L -27.5,-24.0" />
      <path d="M -27.5,-24.0 L -27.97637,-24.0 L -29.381592,-24.0 L -31.645202,-24.0 L -34.653694,-24.0 L -38.256209,-24.0 L -42.272102,-24.0 L -46.5,-24.0 L -50.727898,-24.0 L -54.743791,-24.0 L -58.346306,-24.0 L -61.354798,-24.0 L -63.618408,-24.0 L -65.02363,-24.0 L -65.5,-24.0" />
      <path d="M -65.5,-24.0 L -65.380532,-24.0 L -65.02363,-24.0 L -64.433783,-24.0 L -63.618408,-24.0 L -62.58776,-24.0 L -61.354798,-24.0 L -59.935029,-24.0 L -58.346306,-24.0 L -56.608609,-24.0 L -54.743791,-24.0 L -52.775302,-24.0 L -50.727898,-24.0 L -48.627325,-24.0 L -46.5,-24.0" />
      <path d="M -46.5,-26.0 L -44.372675,-26.0 L -42.272102,-26.0 L -40.224698,-26.0 L -38.256209,-26.0 L -36.391391,-26.0 L -34.653694,-26.0 L -33.064971,-26.0 L -31.645202,-26.0 L -30.41224,-26.0 L -29.381592,-26.0 L -28.566217,-26.0 L -27.97637,-26.0 L -27.619468,-26.0 L -27.5,-26.0" />
      <path d="M -27.5,-26.0 L -27.97637,-26.0 L -29.381592,-26.0 L -31.645202,-26.0 L -34.653694,-26.0 L -38.256209,-26.0 L -42.272102,-26.0 L -46.5,-26.0 L -50.727898,-26.0 L -54.743791,-26.0 L -58.346306,-26.0 L -61.354798,-26.0 L -63.618408,-26.0 L -65.02363,-26.0 L -65.5,-26.0" />
      <path d="M -65.5,-26.0 L -65.380532,-26.0 L -65.02363,-26.0 L -64.433783,-26.0 L -63.618408,-26.0 L -62.58776,-26.0 L -61.354798,-26.0 L -59.935029,-26.0 L -58.346306,-26.0 L -56.608609,-26.0 L -54.743791,-26.0 L -52.775302,-26.0 L -50.727898,-26.0 L -48.627325,-26.0 L -46.5,-26.0" />
      <line x1="45.0" y1="21.505" x2="45.0" y2="24.0" />
      <line x1="32.0" y1="21.505" x2="32.0" y2="24.0" />
      <line x1="50.5" y1="-6.0" x2="50.5" y2="-4.0" />
      <line x1="26.5" y1="-6.0" x2="26.5" y2="-4.0" />
      <line x1="45.5" y1="-6.0" x2="45.5" y2="-4.0" />
      <line x1="31.5" y1="-6.0" x2="31.5" y2="-4.0" />
      <line x1="41.5" y1="-6.0" x2="41.5" y2="-2.0" />
      <line x1="35.5" y1="-6.0" x2="35.5" y2="-2.0" />
      <line x1="51.0" y1="-10.0" x2="51.0" y2="-8.0" />
      <line x1="26.0" y1="-10.0" x2="26.0" y2="-8.0" />
      <line x1="51.003052" y1="-10.0" x2="56.496948" y2="-28.0" />
      <line x1="25.996948" y1="-10.0" x2="20.503052" y2="-28.0" />
      <line x1="51.5" y1="-10.0" x2="51.5" y2="-7.505" />
      <line x1="25.5" y1="-10.0" x2="25.5" y2="-7.505" />
      <line x1="44.5" y1="23.0" x2="44.5" y2="24.0" />
      <line x1="32.5" y1="23.0" x2="32.5" y2="24.0" />
      <line x1="-26.0" y1="-26.0" x2="-26.0" y2="-6.0" />
      <line x1="-67.0" y1="-26.0" x2="-67.0" y2="-6.0" />
      <line x1="-27.5" y1="-26.0" x2="-27.5" y2="-24.0" />
      <line x1="-65.5" y1="-26.0" x2="-65.5" y2="-24.0" />
      <line x1="17.5" y1="6.0" x2="17.5" y2="24.0" />
      <line x1="59.5" y1="6.0" x2="59.5" y2="24.0" />
      <line x1="17.5" y1="6.0" x2="17.5" y2="21.505" />
      <line x1="17.5" y1="6.0" x2="17.5" y2="21.505" />
      <line x1="59.5" y1="6.0" x2="59.5" y2="21.505" />
      <line x1="59.5" y1="6.0" x2="59.5" y2="21.505" />
      <line x1="17.5" y1="-10.0" x2="17.5" y2="6.0" />
      <line x1="59.5" y1="-10.0" x2="59.5" y2="6.0" />
      <line x1="17.5" y1="-7.505" x2="17.5" y2="6.0" />
      <line x1="17.5" y1="-7.505" x2="17.5" y2="6.0" />
      <line x1="59.5" y1="-7.505" x2="59.5" y2="6.0" />
      <line x1="59.5" y1="-7.505" x2="59.5" y2="6.0" />
    </g>
  </g>
</svg><text x="189.59" y="179.62" font-family="IBM Plex Sans, Helvetica, Arial, sans-serif" font-size="2.8" font-weight="600" fill="#EEF5FF" text-anchor="middle">RIGHT VIEW</text><text x="189.59" y="183.62" font-family="IBM Plex Sans, Helvetica, Arial, sans-serif" font-size="2.2" font-weight="400" fill="#AFC8EC" text-anchor="middle">Scale 1:2</text><svg x="276.00" y="38.85" width="140.00" height="104.29" viewBox="-145.13189 -108.306779 318.548052 237.299245" preserveAspectRatio="xMidYMid meet" overflow="visible"><g transform="scale(1,-1)" stroke-linecap="round">
    <g fill="none" stroke="rgb(238,245,255)" stroke-width="0.2048" id="Visible">
      <line x1="-12.020815" y1="12.185436" x2="62.932504" y2="-24.719027" />
      <line x1="63.678083" y1="18.085134" x2="106.773124" y2="-3.133398" />
      <path d="M 77.074639,-24.719027 A 10.0,4.9236596391733105 180.0 0,0 62.932504,-24.719027" />
      <path d="M 106.773124,-10.096504 A 10.0,4.9236596391733105 0.0 0,1 109.702056,-6.614951" />
      <path d="M 109.702056,-6.614951 A 10.0,4.9236596391733105 0.0 0,1 106.773124,-3.133398" />
      <line x1="77.074639" y1="-24.719027" x2="106.773124" y2="-10.096504" />
      <line x1="36.062446" y1="1.740777" x2="3.535534" y2="17.755921" />
      <line x1="36.062446" y1="1.740777" x2="53.033009" y2="10.096504" />
      <line x1="3.535534" y1="17.755921" x2="20.506097" y2="26.111648" />
      <line x1="53.033009" y1="10.096504" x2="20.506097" y2="26.111648" />
      <path d="M 64.70027,-4.003786 A 6.5,3.2003787654626517 0.0 0,1 66.604076,-1.740777" />
      <path d="M 66.604076,-1.740777 A 6.5,3.2003787654626517 0.0 0,1 66.104076,-0.509862" />
      <path d="M 54.104076,-0.509862 A 6.5,3.2003787654626517 0.0 0,1 53.604076,-1.740777" />
      <path d="M 53.604076,-1.740777 A 6.5,3.2003787654626517 0.0 0,1 64.70027,-4.003786" />
      <line x1="-22.627417" y1="1.740777" x2="62.932504" y2="-40.386016" />
      <path d="M 77.074639,-40.386016 A 10.0,4.9236596391733105 180.0 0,0 62.932504,-40.386016" />
      <path d="M 106.773124,-25.763493 A 10.0,4.9236596391733105 0.0 0,1 109.702056,-22.28194" />
      <line x1="77.074639" y1="-40.386016" x2="106.773124" y2="-25.763493" />
      <line x1="20.506097" y1="23.94003" x2="20.506097" y2="26.111648" />
      <path d="M 66.218543,-2.826586 A 6.5,3.2003787654626517 0.0 0,1 66.102467,-2.679581" />
      <path d="M 54.105686,-2.679581 A 6.5,3.2003787654626517 0.0 0,1 53.98961,-2.826586" />
      <path d="M 89.095454,-61.275335 A 21.0,10.33968524226395 0.0 0,1 94.8695,-52.014404" />
      <path d="M 53.622924,-52.014404 A 21.0,10.33968524226395 0.0 0,1 89.095454,-61.275335" />
      <line x1="-22.627417" y1="1.740777" x2="62.932504" y2="-40.386016" />
      <path d="M 77.074639,-40.386016 A 10.0,4.9236596391733105 180.0 0,0 62.932504,-40.386016" />
      <path d="M 106.773124,-25.763493 A 10.0,4.9236596391733105 0.0 0,1 109.702056,-22.28194" />
      <line x1="77.074639" y1="-40.386016" x2="106.773124" y2="-25.763493" />
      <line x1="-16.970563" y1="-14.970678" x2="62.932504" y2="-54.312229" />
      <path d="M 77.074639,-54.312229 A 10.0,4.9236596391733105 180.0 0,0 62.932504,-54.312229" />
      <path d="M 106.773124,-39.689706 A 10.0,4.9236596391733105 0.0 0,1 109.702056,-36.208152" />
      <line x1="77.074639" y1="-54.312229" x2="106.773124" y2="-39.689706" />
      <path d="M 64.346717,-0.348155 A 6.0,2.954195783503986 0.0 0,1 66.104076,1.740777" />
      <path d="M 66.104076,1.740777 A 6.000000000000003,2.9541957835039874 0.0 0,1 54.104076,1.740777" />
      <path d="M 54.104076,1.740777 A 6.0,2.954195783503986 0.0 0,1 64.346717,-0.348155" />
      <path d="M 66.038615,-3.046359 A 6.0,2.954195783503986 0.0 0,1 66.104076,-2.611165" />
      <path d="M 54.104076,-2.611165 A 6.0,2.954195783503986 0.0 0,1 54.169538,-3.046359" />
      <path d="M -22.627417,-46.304656 A 23.0,11.324417170098613 0.0 0,1 -15.890873,-38.297084" />
      <path d="M -15.890873,-38.297084 A 23.0,11.324417170098613 0.0 0,1 -61.890873,-38.297084" />
      <path d="M -61.890873,-38.297084 A 23.0,11.324417170098613 0.0 0,1 -22.627417,-46.304656" />
      <path d="M -22.627417,-65.453199 A 23.0,11.324417170098613 0.0 0,1 -15.890873,-57.445626" />
      <path d="M -61.890873,-57.445626 A 23.0,11.324417170098613 0.0 0,1 -22.627417,-65.453199" />
      <path d="M -24.395184,-45.434268 A 20.5,10.093502260305286 0.0 0,1 -18.390873,-38.297084" />
      <path d="M -18.390873,-38.297084 A 20.5,10.093502260305286 0.0 0,1 -59.390873,-38.297084" />
      <path d="M -59.390873,-38.297084 A 20.5,10.093502260305286 0.0 0,1 -24.395184,-45.434268" />
      <path d="M -27.201853,-46.588983 A 19.0,9.35495331442929 0.0 0,1 -50.579893,-46.588983" />
      <line x1="-52.325902" y1="44.912035" x2="-43.535219" y2="49.240268" />
      <line x1="-52.325902" y1="34.815531" x2="-52.325902" y2="44.912035" />
      <line x1="-43.535219" y1="49.240268" x2="-40.706792" y2="47.847647" />
      <line x1="-40.706792" y1="47.847647" x2="-1.719615" y2="67.043606" />
      <line x1="-2.609978" y1="69.390464" x2="4.242641" y2="72.76446" />
      <line x1="4.242641" y1="72.76446" x2="38.183766" y2="56.053005" />
      <line x1="-18.384776" y1="28.20058" x2="38.183766" y2="56.053005" />
      <line x1="-52.325902" y1="44.912035" x2="-18.384776" y2="28.20058" />
      <path d="M -72.042757,106.963459 A 29.000000160880173,17.848266291018152 -116.21406534015115 0,1 -97.662871,54.928761" />
      <path d="M -1.719615,67.043606 A 29.0,17.84826619200325 -116.21406534015115 0,1 -8.403146,75.629481" />
      <path d="M -8.403146,75.629481 A 29.0,17.84826619200325 -116.21406534015115 0,1 -40.706792,47.847647" />
      <line x1="-18.384776" y1="9.052038" x2="30.611923" y2="33.176345" />
      <line x1="-19.79899" y1="9.748349" x2="-18.384776" y2="9.052038" />
      <line x1="-50.911688" y1="35.511842" x2="-19.79899" y2="20.193008" />
      <line x1="-19.79899" y1="20.193008" x2="-19.79899" y2="9.748349" />
      <line x1="-18.384776" y1="9.052038" x2="-18.384776" y2="28.20058" />
      <line x1="38.183766" y1="38.699428" x2="38.183766" y2="56.053005" />
      <path d="M 38.183766,38.699428 A 9.0,5.539117094069974 -116.21406534015115 0,1 30.611923,33.176345" />
      <path d="M 73.46614,13.265827 A 9.0,5.539117094069974 -116.21406534015115 0,1 71.857786,22.348717" />
      <path d="M 71.857786,22.348717 A 9.0,5.539117094069974 -116.21406534015115 0,1 63.906716,6.200018" />
      <line x1="-22.627417" y1="18.800387" x2="-19.79899" y2="20.193008" />
      <line x1="-22.627417" y1="-17.755921" x2="-12.727922" y2="-12.881747" />
      <line x1="-22.627417" y1="-17.755921" x2="-22.627417" y2="18.800387" />
      <line x1="-53.740115" y1="34.119221" x2="-50.911688" y2="35.511842" />
      <line x1="-53.740115" y1="-2.437087" x2="-53.740115" y2="34.119221" />
      <line x1="-53.740115" y1="34.119221" x2="-22.627417" y2="18.800387" />
      <line x1="-53.740115" y1="-2.437087" x2="-22.627417" y2="-17.755921" />
      <line x1="-144.95689" y1="-38.297084" x2="-144.95689" y2="-33.074755" />
      <line x1="-144.95689" y1="-33.074755" x2="-53.740115" y2="11.837281" />
      <line x1="38.890873" y1="-128.817465" x2="38.890873" y2="-123.595136" />
      <line x1="38.890873" y1="-123.595136" x2="173.241161" y2="-57.445626" />
      <line x1="173.241161" y1="-62.667956" x2="173.241161" y2="-57.445626" />
      <line x1="38.890873" y1="-128.817465" x2="173.241161" y2="-62.667956" />
      <line x1="-144.95689" y1="-38.297084" x2="38.890873" y2="-128.817465" />
      <line x1="-144.95689" y1="-33.074755" x2="38.890873" y2="-123.595136" />
      <line x1="109.702056" y1="-26.161134" x2="173.241161" y2="-57.445626" />
      <line x1="62.932504" y1="-40.386016" x2="62.932504" y2="-24.719027" />
      <line x1="77.074639" y1="-40.386016" x2="77.074639" y2="-24.719027" />
      <line x1="106.773124" y1="-25.763493" x2="106.773124" y2="-10.096504" />
      <line x1="62.932504" y1="-54.312229" x2="62.932504" y2="-40.386016" />
      <line x1="77.074639" y1="-54.312229" x2="77.074639" y2="-40.386016" />
      <line x1="106.773124" y1="-39.689706" x2="106.773124" y2="-25.763493" />
      <line x1="109.702056" y1="-22.28194" x2="109.702056" y2="-6.614951" />
      <line x1="92.754873" y1="-46.591815" x2="94.8695" y2="-52.014404" />
      <line x1="54.370758" y1="-50.096716" x2="53.622924" y2="-52.014404" />
      <line x1="109.702056" y1="-36.208152" x2="109.702056" y2="-22.28194" />
      <line x1="66.104076" y1="-2.611165" x2="66.104076" y2="1.740777" />
      <line x1="54.104076" y1="-2.611165" x2="54.104076" y2="1.740777" />
      <line x1="-15.890873" y1="-57.445626" x2="-15.890873" y2="-38.297084" />
      <line x1="-61.890873" y1="-57.445626" x2="-61.890873" y2="-38.297084" />
      <line x1="-97.662871" y1="54.928761" x2="-53.740115" y2="33.302691" />
      <line x1="-72.042757" y1="106.963459" x2="-8.403146" y2="75.629481" />
      <line x1="38.183766" y1="38.928659" x2="71.857786" y2="22.348717" />
    </g>
  </g>
</svg><text x="346.00" y="156.00" font-family="IBM Plex Sans, Helvetica, Arial, sans-serif" font-size="2.8" font-weight="600" fill="#EEF5FF" text-anchor="middle">ISOMETRIC VIEW</text><text x="346.00" y="160.00" font-family="IBM Plex Sans, Helvetica, Arial, sans-serif" font-size="2.2" font-weight="400" fill="#AFC8EC" text-anchor="middle">Not to scale; grey is for scale</text><rect x="276" y="168" width="140" height="31.0" fill="#143F73" stroke="#EEF5FF" stroke-width="0.35"/><text x="279.00" y="173.00" font-family="IBM Plex Sans, Helvetica, Arial, sans-serif" font-size="2.3" font-weight="600" fill="#8FE3D6" text-anchor="start">KEY FIGURES</text><text x="279.00" y="178.00" font-family="IBM Plex Sans, Helvetica, Arial, sans-serif" font-size="2.6" font-weight="400" fill="#EEF5FF" text-anchor="start">8 NIR/SWIR bands, 850 to 1,650 nm</text><text x="279.00" y="182.60" font-family="IBM Plex Sans, Helvetica, Arial, sans-serif" font-size="2.6" font-weight="400" fill="#EEF5FF" text-anchor="start">Scan about 0.6 s (estimate)</text><text x="279.00" y="187.20" font-family="IBM Plex Sans, Helvetica, Arial, sans-serif" font-size="2.6" font-weight="400" fill="#EEF5FF" text-anchor="start">Body 160 x 62 x 34 mm, about 170 g (estimate)</text><text x="279.00" y="191.80" font-family="IBM Plex Sans, Helvetica, Arial, sans-serif" font-size="2.6" font-weight="400" fill="#EEF5FF" text-anchor="start">About 17 h per charge on one 18650 (estimate)</text><text x="279.00" y="196.40" font-family="IBM Plex Sans, Helvetica, Arial, sans-serif" font-size="2.6" font-weight="400" fill="#EEF5FF" text-anchor="start">About $163 in parts (indicative)</text><rect x="273.8" y="10.0" width="148" height="10.4" fill="#143F73" stroke="#EEF5FF" stroke-width="0.5"/><rect x="273.8" y="10.0" width="148" height="5.2" fill="#1D4F8A" stroke="#EEF5FF" stroke-width="0.5"/><text x="275.60" y="13.60" font-family="IBM Plex Sans, Helvetica, Arial, sans-serif" font-size="2.0" font-weight="600" fill="#EEF5FF" text-anchor="start">REV</text><text x="289.60" y="13.60" font-family="IBM Plex Sans, Helvetica, Arial, sans-serif" font-size="2.0" font-weight="600" fill="#EEF5FF" text-anchor="start">DESCRIPTION</text><text x="381.60" y="13.60" font-family="IBM Plex Sans, Helvetica, Arial, sans-serif" font-size="2.0" font-weight="600" fill="#EEF5FF" text-anchor="start">DATE</text><text x="407.60" y="13.60" font-family="IBM Plex Sans, Helvetica, Arial, sans-serif" font-size="2.0" font-weight="600" fill="#EEF5FF" text-anchor="start">BY</text><line x1="273.8" y1="15.2" x2="421.8" y2="15.2" stroke="#6F93C4" stroke-width="0.3"/><text x="275.60" y="18.80" font-family="IBM Plex Mono, Menlo, monospace" font-size="2.3" font-weight="400" fill="#EEF5FF" text-anchor="start">P1</text><text x="289.60" y="18.80" font-family="IBM Plex Sans, Helvetica, Arial, sans-serif" font-size="2.3" font-weight="400" fill="#EEF5FF" text-anchor="start">Concept sheet</text><text x="381.60" y="18.80" font-family="IBM Plex Sans, Helvetica, Arial, sans-serif" font-size="2.3" font-weight="400" fill="#EEF5FF" text-anchor="start">2026-09-25</text><text x="407.60" y="18.80" font-family="IBM Plex Sans, Helvetica, Arial, sans-serif" font-size="2.3" font-weight="400" fill="#EEF5FF" text-anchor="start">AC</text><rect x="231.8" y="213.39999999999998" width="190.0" height="56.0" fill="#143F73" stroke="#EEF5FF" stroke-width="0.7"/><rect x="231.8" y="213.39999999999998" width="3" height="56.0" fill="#8FE3D6"/><line x1="231.8" y1="227.39999999999998" x2="421.8" y2="227.39999999999998" stroke="#6F93C4" stroke-width="0.3"/><line x1="231.8" y1="239.39999999999998" x2="421.8" y2="239.39999999999998" stroke="#6F93C4" stroke-width="0.3"/><line x1="231.8" y1="251.39999999999998" x2="421.8" y2="251.39999999999998" stroke="#6F93C4" stroke-width="0.3"/><line x1="231.8" y1="260.4" x2="421.8" y2="260.4" stroke="#6F93C4" stroke-width="0.3"/><text x="237.80" y="218.40" font-family="IBM Plex Sans, Helvetica, Arial, sans-serif" font-size="2.2" font-weight="600" fill="#8FE3D6" text-anchor="start">WASTEWISE SCAN</text><text x="237.80" y="224.40" font-family="IBM Plex Sans, Helvetica, Arial, sans-serif" font-size="4.4" font-weight="600" fill="#EEF5FF" text-anchor="start">Handheld resin scanner concept</text><text x="236.80" y="230.80" font-family="IBM Plex Sans, Helvetica, Arial, sans-serif" font-size="1.8" font-weight="500" fill="#AFC8EC" text-anchor="start">DRAWING NO.</text><text x="236.80" y="235.60" font-family="IBM Plex Mono, Menlo, monospace" font-size="3.4" font-weight="600" fill="#EEF5FF" text-anchor="start">WSC-DWG-010</text><text x="316.80" y="230.80" font-family="IBM Plex Sans, Helvetica, Arial, sans-serif" font-size="1.8" font-weight="500" fill="#AFC8EC" text-anchor="start">REV</text><text x="316.80" y="235.60" font-family="IBM Plex Mono, Menlo, monospace" font-size="3.4" font-weight="600" fill="#EEF5FF" text-anchor="start">P1</text><line x1="314.8" y1="227.39999999999998" x2="314.8" y2="239.39999999999998" stroke="#6F93C4" stroke-width="0.3"/><text x="341.80" y="230.80" font-family="IBM Plex Sans, Helvetica, Arial, sans-serif" font-size="1.8" font-weight="500" fill="#AFC8EC" text-anchor="start">SHEET</text><text x="341.80" y="235.60" font-family="IBM Plex Sans, Helvetica, Arial, sans-serif" font-size="3.4" font-weight="600" fill="#EEF5FF" text-anchor="start">1 of 1</text><line x1="339.8" y1="227.39999999999998" x2="339.8" y2="239.39999999999998" stroke="#6F93C4" stroke-width="0.3"/><text x="371.80" y="230.80" font-family="IBM Plex Sans, Helvetica, Arial, sans-serif" font-size="1.8" font-weight="500" fill="#AFC8EC" text-anchor="start">SIZE</text><text x="371.80" y="235.60" font-family="IBM Plex Sans, Helvetica, Arial, sans-serif" font-size="3.4" font-weight="600" fill="#EEF5FF" text-anchor="start">ANSI B</text><line x1="369.8" y1="227.39999999999998" x2="369.8" y2="239.39999999999998" stroke="#6F93C4" stroke-width="0.3"/><text x="236.80" y="242.80" font-family="IBM Plex Sans, Helvetica, Arial, sans-serif" font-size="1.8" font-weight="500" fill="#AFC8EC" text-anchor="start">SCALE</text><text x="236.80" y="247.20" font-family="IBM Plex Sans, Helvetica, Arial, sans-serif" font-size="3.0" font-weight="500" fill="#EEF5FF" text-anchor="start">1:2</text><text x="266.80" y="242.80" font-family="IBM Plex Sans, Helvetica, Arial, sans-serif" font-size="1.8" font-weight="500" fill="#AFC8EC" text-anchor="start">UNITS</text><text x="266.80" y="247.20" font-family="IBM Plex Sans, Helvetica, Arial, sans-serif" font-size="3.0" font-weight="500" fill="#EEF5FF" text-anchor="start">mm</text><line x1="264.8" y1="239.39999999999998" x2="264.8" y2="251.39999999999998" stroke="#6F93C4" stroke-width="0.3"/><text x="291.80" y="242.80" font-family="IBM Plex Sans, Helvetica, Arial, sans-serif" font-size="1.8" font-weight="500" fill="#AFC8EC" text-anchor="start">PROJECTION</text><path d="M302.8 244.39999999999998 L308.8 242.89999999999998 L308.8 250.89999999999998 L302.8 249.39999999999998 Z" fill="none" stroke="#EEF5FF" stroke-width="0.3"/><circle cx="314.8" cy="246.89999999999998" r="4" fill="none" stroke="#EEF5FF" stroke-width="0.3"/><circle cx="314.8" cy="246.89999999999998" r="2.3" fill="none" stroke="#EEF5FF" stroke-width="0.3"/><line x1="300.8" y1="246.89999999999998" x2="320.3" y2="246.89999999999998" stroke="#EEF5FF" stroke-width="0.18" stroke-dasharray="3 1 0.6 1"/><line x1="289.8" y1="239.39999999999998" x2="289.8" y2="251.39999999999998" stroke="#6F93C4" stroke-width="0.3"/><text x="326.80" y="242.80" font-family="IBM Plex Sans, Helvetica, Arial, sans-serif" font-size="1.8" font-weight="500" fill="#AFC8EC" text-anchor="start">DATE</text><text x="326.80" y="247.20" font-family="IBM Plex Sans, Helvetica, Arial, sans-serif" font-size="3.0" font-weight="500" fill="#EEF5FF" text-anchor="start">2026-09-25</text><line x1="324.8" y1="239.39999999999998" x2="324.8" y2="251.39999999999998" stroke="#6F93C4" stroke-width="0.3"/><text x="366.80" y="242.80" font-family="IBM Plex Sans, Helvetica, Arial, sans-serif" font-size="1.8" font-weight="500" fill="#AFC8EC" text-anchor="start">DRAWN</text><text x="366.80" y="247.20" font-family="IBM Plex Sans, Helvetica, Arial, sans-serif" font-size="3.0" font-weight="500" fill="#EEF5FF" text-anchor="start">Amish Chadha</text><line x1="364.8" y1="239.39999999999998" x2="364.8" y2="251.39999999999998" stroke="#6F93C4" stroke-width="0.3"/><text x="236.80" y="254.80" font-family="IBM Plex Sans, Helvetica, Arial, sans-serif" font-size="1.8" font-weight="500" fill="#AFC8EC" text-anchor="start">MATERIAL / NOTES</text><text x="236.80" y="258.80" font-family="IBM Plex Sans, Helvetica, Arial, sans-serif" font-size="2.6" font-weight="400" fill="#EEF5FF" text-anchor="start">Massing model for concept communication</text><text x="236.80" y="266.20" font-family="IBM Plex Sans, Helvetica, Arial, sans-serif" font-size="2.1" font-weight="400" fill="#AFC8EC" text-anchor="start">Licensed CERN-OHL-S-2.0 · Open Hardware Portfolio · amishchadha.com</text><text x="418.80" y="266.20" font-family="IBM Plex Sans, Helvetica, Arial, sans-serif" font-size="1.9" font-weight="400" fill="#AFC8EC" text-anchor="end">Generated from cad/src; do not edit by hand</text></svg>